<?xml version="1.0" standalone="no"?>
<!DOCTYPE svg PUBLIC "-//W3C//DTD SVG 20010904//EN"
 "http://www.w3.org/TR/2001/REC-SVG-20010904/DTD/svg10.dtd">
<svg version="1.0" xmlns="http://www.w3.org/2000/svg"
 width="800.000000pt" height="800.000000pt" viewBox="0 0 800.000000 800.000000"
 preserveAspectRatio="xMidYMid meet">
<metadata>
Created by potrace 1.11, written by Peter Selinger 2001-2013
</metadata>
<g transform="translate(0.000000,800.000000) scale(0.100000,-0.100000)"
fill="#000000" stroke="none">
<path d="M3639 7186 c-2 -3 -31 -7 -62 -10 -101 -10 -166 -27 -292 -76 -46
-19 -60 -23 -67 -22 -11 2 -163 -50 -168 -58 -3 -4 -26 -17 -52 -28 -26 -11
-63 -32 -81 -46 -19 -14 -38 -26 -43 -26 -12 0 -50 -32 -188 -163 -104 -98
-161 -164 -216 -247 -8 -13 -25 -35 -37 -50 -13 -15 -23 -36 -23 -45 0 -9 -9
-19 -20 -22 -11 -3 -20 -10 -20 -17 -1 -6 -14 -29 -30 -51 -16 -22 -39 -59
-50 -83 -12 -24 -27 -46 -35 -49 -8 -3 -15 -11 -15 -18 0 -7 -8 -28 -17 -47
-30 -60 -33 -68 -33 -81 0 -7 -12 -24 -26 -38 -26 -23 -144 -251 -144 -276 0
-7 -4 -13 -8 -13 -5 0 -17 -17 -27 -37 -23 -46 -30 -63 -17 -44 7 10 11 5 14
-19 3 -21 0 -34 -9 -37 -7 -3 -13 -10 -13 -17 0 -6 -9 -22 -20 -36 -11 -14
-20 -33 -20 -43 0 -9 -5 -16 -12 -15 -7 2 -18 -18 -25 -46 -7 -27 -19 -64 -28
-82 -8 -17 -15 -39 -15 -48 0 -9 -4 -16 -9 -16 -5 0 -12 -28 -16 -61 -4 -34
-20 -92 -35 -128 -15 -36 -33 -91 -40 -121 -13 -54 -29 -80 -49 -80 -6 0 -11
-14 -11 -31 0 -17 4 -28 10 -24 6 3 10 -3 10 -14 0 -12 -9 -26 -20 -33 -13 -9
-20 -24 -20 -46 0 -18 -8 -49 -19 -70 -16 -32 -26 -72 -34 -132 -1 -8 -9 -26
-16 -40 -8 -14 -23 -40 -33 -58 -10 -18 -18 -40 -18 -50 0 -9 -11 -40 -24 -69
-22 -46 -32 -88 -26 -103 7 -16 8 -90 2 -86 -4 3 -13 -4 -20 -14 -8 -13 -8
-21 -1 -26 7 -4 8 -20 3 -43 -4 -20 -6 -46 -6 -57 1 -12 -5 -27 -13 -34 -8 -7
-15 -18 -15 -25 0 -8 -4 -15 -10 -17 -5 -1 -16 -32 -24 -68 -8 -36 -22 -86
-32 -112 -10 -26 -14 -51 -10 -55 5 -4 11 -2 13 5 6 15 23 6 23 -13 0 -7 -10
-35 -21 -62 -23 -53 -29 -129 -32 -420 -2 -153 -1 -162 16 -157 13 4 20 0 24
-15 3 -12 9 -21 14 -21 13 0 11 17 -4 31 -9 9 -11 30 -6 78 4 36 3 97 -2 134
-5 40 -5 75 0 84 6 12 9 10 8 -11 0 -15 10 -40 21 -56 19 -25 28 -90 12 -90
-3 0 -4 -19 0 -42 4 -28 10 -42 19 -40 10 2 12 -10 9 -46 -3 -45 -1 -48 18
-44 31 6 36 -10 22 -62 -10 -37 -17 -46 -34 -46 -15 0 -24 8 -29 28 -4 15 -10
21 -12 15 -7 -19 -21 -16 -26 5 -3 9 -5 1 -6 -18 -1 -19 -8 -48 -16 -64 -19
-35 -19 -44 0 -62 17 -17 21 -124 5 -124 -5 0 -9 -19 -8 -42 1 -37 2 -39 5
-10 2 17 8 32 13 32 11 0 30 -90 30 -143 0 -45 -34 -150 -50 -155 -6 -2 -10
-14 -10 -26 0 -12 -5 -27 -11 -33 -13 -13 -3 -36 12 -28 5 4 9 14 9 23 0 9 9
28 20 42 16 20 20 22 20 8 0 -10 5 -18 10 -18 6 0 10 5 10 10 0 6 4 10 8 10 8
0 -8 -99 -21 -130 -3 -8 -7 -24 -9 -34 -2 -11 -9 -21 -17 -24 -10 -3 -12 0 -8
12 4 9 1 16 -4 16 -7 0 -9 -11 -7 -25 3 -14 1 -25 -3 -25 -5 0 -21 -19 -36
-43 -16 -23 -34 -48 -41 -56 -8 -8 -11 -24 -8 -37 4 -14 2 -24 -4 -24 -6 0 -8
5 -4 12 4 6 -4 3 -18 -8 -14 -10 -31 -32 -38 -49 -8 -16 -16 -34 -18 -39 -3
-5 1 -6 7 -2 6 4 21 26 33 49 12 23 23 36 26 29 6 -18 -46 -93 -69 -99 -10 -3
-19 -14 -19 -24 0 -11 -6 -19 -14 -19 -7 0 -19 -13 -26 -30 -7 -16 -16 -30
-21 -30 -5 0 -9 -6 -10 -12 -1 -19 -142 -139 -197 -169 -27 -14 -69 -39 -93
-56 -62 -42 -72 -47 -68 -36 4 10 164 188 210 233 14 14 60 69 103 123 42 55
96 122 121 150 53 62 90 113 107 147 7 14 18 31 25 38 19 19 17 45 -3 38 -9
-3 -18 -6 -20 -6 -2 0 -4 -6 -4 -14 0 -8 -9 -18 -20 -21 -11 -3 -20 -14 -20
-24 0 -10 -11 -28 -25 -41 -13 -12 -23 -25 -22 -29 4 -16 -36 -71 -93 -128
-14 -14 -24 -30 -22 -35 1 -5 -2 -7 -8 -3 -6 3 -18 -8 -28 -25 -18 -33 -59
-90 -131 -180 -38 -49 -195 -214 -235 -248 -9 -6 -13 -18 -10 -25 2 -7 -2 -30
-11 -50 -18 -43 -19 -50 -5 -42 6 3 10 13 10 22 0 18 38 73 50 73 5 0 11 -8
13 -18 4 -15 6 -15 12 3 3 11 19 29 35 40 16 11 27 22 24 24 -5 5 126 91 139
91 16 0 -5 -21 -29 -30 -14 -6 -28 -18 -31 -27 -4 -10 -23 -35 -42 -56 -20
-21 -40 -46 -45 -55 -15 -29 -59 -72 -68 -66 -4 3 -8 -9 -8 -26 0 -17 -9 -50
-20 -73 -13 -25 -15 -34 -5 -23 8 11 15 23 15 28 0 4 7 8 15 8 8 0 15 9 15 20
0 11 14 35 30 53 17 17 40 42 51 54 12 13 24 21 28 19 8 -6 -14 -168 -28 -206
-17 -45 -22 -80 -11 -80 5 0 10 -4 10 -10 0 -5 -10 -9 -22 -7 -26 2 -48 -33
-48 -80 0 -17 -4 -35 -10 -38 -5 -3 -10 -19 -10 -34 0 -16 -6 -34 -14 -40 -10
-8 -12 -21 -6 -45 4 -19 4 -40 -1 -47 -4 -7 -6 -16 -4 -19 2 -4 -5 -40 -15
-81 -11 -41 -19 -92 -19 -114 1 -22 3 -32 6 -22 2 9 9 17 14 17 5 0 9 6 9 14
0 14 29 31 37 22 15 -15 -20 -357 -62 -603 l-6 -33 68 0 69 0 21 98 c12 53 31
133 43 177 11 44 19 97 16 118 -3 26 0 37 9 37 8 0 11 8 8 20 -4 14 0 20 11
20 10 0 16 9 16 24 0 13 4 26 9 28 14 5 24 78 10 78 -9 0 -9 3 0 14 6 7 18 36
26 64 18 59 42 75 51 34 3 -15 7 -32 9 -39 2 -6 -3 -14 -11 -17 -8 -3 -14 -14
-14 -25 0 -11 -7 -24 -16 -29 -10 -6 -13 -12 -6 -16 5 -3 8 -15 5 -26 -4 -14
0 -20 11 -20 9 0 16 5 16 10 0 6 8 19 18 29 94 102 92 100 112 76 10 -12 10
-15 0 -15 -20 0 -60 -36 -50 -46 5 -5 0 -26 -12 -49 -18 -35 -21 -60 -22 -190
-1 -141 0 -152 22 -182 12 -17 22 -34 22 -38 0 -12 48 -53 70 -60 12 -4 27 -2
35 5 8 6 16 7 19 2 3 -6 -2 -12 -13 -15 -14 -3 -17 -11 -14 -34 l5 -30 143 -2
c154 -2 148 -4 211 56 7 7 17 13 22 13 5 0 15 11 22 25 10 19 19 24 34 19 12
-4 23 -11 24 -16 2 -5 15 3 29 17 29 28 43 32 43 10 0 -28 70 -125 90 -125 11
0 20 5 20 12 0 9 3 9 12 0 7 -7 21 -12 33 -12 18 0 20 5 17 34 -2 18 1 65 8
102 7 38 15 89 20 114 8 46 22 93 45 145 23 52 49 139 48 158 -1 9 2 17 8 17
5 0 9 7 9 16 0 8 4 12 10 9 5 -3 9 8 8 28 -1 33 23 77 67 123 25 26 45 60 45
78 0 7 7 13 16 12 9 0 18 6 19 14 2 8 15 35 29 60 14 25 46 84 71 133 30 57
51 87 62 87 13 0 14 3 6 11 -14 14 -8 32 27 69 25 26 28 27 43 13 15 -15 19
-14 56 10 22 15 45 27 50 27 5 0 13 9 16 21 9 28 43 61 50 49 4 -6 18 -10 32
-10 21 0 23 2 13 15 -7 8 -15 13 -19 11 -3 -2 -11 2 -18 9 -10 10 -9 14 2 19
20 7 19 22 -2 30 -10 4 -20 1 -25 -9 -11 -19 -32 -20 -25 -1 3 7 -3 25 -12 40
-18 27 -17 71 1 82 6 4 14 1 18 -6 13 -21 42 -3 38 22 -2 17 3 24 20 26 15 2
22 10 22 27 0 12 7 26 16 29 9 4 14 9 11 13 -3 3 1 22 9 41 8 20 17 62 21 94
6 55 16 72 26 46 3 -7 6 -4 6 8 1 30 26 61 36 44 4 -7 2 -15 -4 -20 -7 -4 2
-7 21 -8 17 0 27 2 22 6 -18 12 -24 52 -8 52 8 0 14 -7 14 -15 0 -8 5 -15 10
-15 6 0 10 11 10 24 0 13 9 35 21 50 11 14 18 30 15 35 -3 5 1 14 9 21 11 9
12 16 5 25 -8 9 -8 15 0 20 6 3 8 11 5 16 -4 5 1 12 9 15 24 9 42 140 24 176
-5 10 -4 19 2 23 6 3 10 18 10 33 0 15 3 44 6 64 5 28 2 39 -9 43 -11 5 -15
27 -16 94 -1 49 -6 104 -11 122 -7 24 -6 35 2 40 13 9 28 3 28 -11 0 -16 99
-110 115 -110 9 0 18 -7 21 -15 4 -8 12 -15 20 -15 8 0 14 -4 14 -9 0 -11 39
-26 46 -18 3 3 -44 54 -103 113 -60 60 -120 124 -133 142 -14 18 -37 48 -52
65 -15 18 -33 43 -40 57 -7 14 -29 47 -50 74 -21 27 -38 54 -38 61 0 8 -3 15
-7 17 -10 4 -63 74 -63 83 0 3 -16 31 -35 61 -19 30 -35 60 -35 67 0 7 -4 17
-10 23 -14 14 -57 132 -80 220 -11 42 -34 171 -51 288 -40 261 -46 510 -16
611 19 65 87 218 100 223 4 2 10 21 13 43 4 21 10 39 15 39 5 0 9 9 9 20 0 11
5 20 10 20 6 0 10 9 10 19 0 11 4 22 9 25 4 3 11 24 15 45 5 30 10 39 21 35 8
-4 15 -1 15 5 0 6 -7 11 -15 11 -12 0 -15 20 -15 119 0 77 5 130 14 152 7 19
12 39 9 45 -5 15 52 256 71 297 8 18 17 44 20 59 9 39 65 158 75 158 5 0 12
15 15 33 3 17 23 55 44 82 21 28 62 85 91 128 121 175 284 345 411 427 13 8
40 30 60 48 21 17 40 32 44 32 3 0 29 15 58 34 29 18 73 43 98 54 25 12 60 31
78 42 17 11 32 17 32 14 0 -4 6 -1 13 5 8 6 17 8 20 5 4 -4 24 8 46 27 21 19
59 49 84 67 28 20 47 43 50 60 3 15 13 36 21 47 14 19 15 17 16 -27 0 -27 5
-49 10 -49 6 -1 13 -2 18 -3 4 -1 23 -6 42 -10 43 -10 132 -53 182 -88 49 -34
98 -75 98 -83 0 -3 11 -16 25 -29 13 -13 22 -26 18 -29 -3 -4 5 -7 20 -7 14 0
33 -7 41 -16 17 -17 20 -25 9 -23 -24 4 -20 -5 19 -41 23 -22 46 -40 51 -40 4
0 7 -7 7 -15 0 -8 4 -15 9 -15 11 0 26 -39 22 -59 -2 -10 5 -12 23 -9 20 4 26
0 31 -20 3 -13 4 -27 0 -30 -3 -3 -5 0 -5 6 0 7 -4 12 -10 12 -15 0 -12 -19 6
-37 12 -13 15 -28 10 -65 -4 -30 -3 -48 4 -48 5 0 10 -5 10 -11 0 -5 -4 -7
-10 -4 -6 4 -10 -5 -10 -20 0 -14 4 -24 9 -21 18 11 -15 -80 -36 -99 -18 -17
-20 -23 -9 -37 7 -10 19 -18 27 -18 12 0 12 2 0 9 -8 5 -10 14 -6 21 12 19 25
-11 18 -39 -5 -19 -11 -22 -35 -17 -26 5 -28 3 -23 -14 3 -11 6 -42 7 -70 0
-27 4 -50 9 -50 5 0 8 -3 7 -7 -2 -5 2 -9 7 -10 11 -3 11 14 -1 66 -6 29 -4
33 11 30 10 -2 20 -11 22 -19 4 -13 3 -13 -6 0 -9 13 -11 13 -11 -1 0 -9 7
-22 15 -29 20 -16 19 -30 -2 -30 -14 0 -13 -4 7 -25 18 -19 20 -28 12 -38 -13
-16 18 -115 42 -133 12 -9 12 -11 0 -20 -12 -7 -13 -15 -3 -41 11 -34 29 -45
29 -18 0 24 20 18 51 -16 16 -17 33 -28 38 -25 5 4 12 2 16 -4 3 -5 15 -10 26
-10 11 0 18 -4 15 -9 -3 -4 0 -22 6 -39 18 -48 5 -55 -89 -45 -44 5 -93 5
-109 1 -16 -5 -69 -12 -119 -17 -49 -5 -91 -14 -93 -20 -2 -6 -12 -11 -23 -11
-10 0 -19 -4 -19 -9 0 -16 -32 -22 -47 -9 -12 10 -21 6 -47 -24 -31 -35 -34
-36 -50 -20 -17 16 -17 16 -14 -8 4 -32 44 -51 123 -58 75 -6 135 11 135 38 0
19 19 30 51 30 16 0 18 -5 13 -24 -5 -21 -2 -25 18 -24 41 0 69 8 63 18 -3 5
0 12 6 16 6 4 16 0 20 -9 5 -9 30 -18 61 -22 88 -11 132 -25 156 -51 13 -13
26 -24 30 -24 4 0 16 -13 25 -30 12 -20 26 -30 41 -30 13 0 27 -7 30 -16 3 -8
2 -12 -3 -9 -5 3 -12 1 -16 -5 -3 -5 -1 -10 4 -10 19 0 12 -16 -24 -54 -19
-20 -48 -42 -66 -48 -23 -8 -29 -15 -26 -29 7 -26 -9 -34 -36 -17 -49 31 -169
69 -220 71 -49 2 -53 1 -44 -14 14 -23 -9 -52 -34 -44 -9 3 -20 1 -24 -5 -3
-6 -10 -8 -15 -5 -5 3 -11 1 -15 -5 -3 -5 -19 -10 -34 -10 -30 0 -66 -30 -45
-37 25 -8 43 -29 46 -53 2 -20 -2 -26 -20 -28 -18 -3 -21 -8 -16 -29 7 -25 6
-26 -27 -20 -51 10 -109 40 -109 57 0 12 2 12 9 2 6 -10 10 -7 15 12 3 14 11
26 17 26 6 0 22 9 36 20 48 37 14 22 -105 -47 -63 -37 -54 -57 28 -63 62 -5
148 -31 180 -54 41 -30 82 -46 120 -46 29 0 47 -6 63 -23 15 -15 35 -22 61
-23 22 0 44 -7 50 -16 6 -8 16 -13 23 -11 6 2 14 0 17 -6 7 -11 46 -3 46 10 0
5 11 9 25 9 14 0 25 5 25 10 0 6 6 10 14 10 7 0 19 7 27 16 12 14 14 14 21 -6
6 -16 13 -20 28 -15 20 6 21 5 24 -45 1 -8 11 -16 23 -18 15 -2 24 -13 28 -33
4 -16 10 -29 15 -29 12 0 20 -44 10 -54 -12 -12 -13 -56 -2 -56 4 0 7 -41 8
-90 0 -50 -3 -90 -8 -90 -4 0 -8 -6 -8 -13 0 -8 -12 -19 -26 -26 -14 -6 -24
-17 -21 -24 3 -7 -1 -21 -8 -31 -8 -10 -11 -25 -8 -34 4 -10 2 -13 -5 -8 -7 4
-14 -4 -17 -21 -4 -15 -10 -37 -15 -48 -7 -17 -9 -17 -9 -2 -1 22 -10 22 -26
0 -11 -14 -10 -19 3 -29 15 -11 14 -15 -14 -41 -17 -15 -43 -54 -59 -85 -16
-32 -31 -55 -34 -53 -8 9 -41 -28 -41 -46 0 -10 -5 -21 -11 -25 -6 -3 -9 -17
-6 -30 2 -14 -1 -24 -7 -24 -6 0 -5 -4 3 -9 16 -10 25 -152 10 -161 -5 -4 -10
-25 -11 -48 -1 -30 -8 -47 -26 -62 -16 -15 -22 -28 -18 -42 3 -13 -5 -38 -20
-64 -14 -24 -23 -48 -20 -53 3 -5 -1 -14 -9 -21 -16 -13 -21 -35 -6 -26 5 3
12 -1 15 -10 9 -24 7 -31 -4 -14 -8 13 -10 13 -10 -2 0 -25 -40 -19 -41 7 0
20 0 20 -9 0 -4 -11 -4 -24 1 -30 17 -17 9 -25 -26 -25 -19 0 -35 5 -35 10 0
6 -11 10 -25 10 -30 0 -33 -18 -5 -28 15 -5 17 -11 9 -22 -8 -11 -12 -12 -16
-2 -7 17 -32 15 -39 -3 -4 -8 -10 -15 -15 -15 -5 0 -4 12 1 26 15 40 12 49
-21 61 -26 10 -31 9 -36 -5 -4 -9 -10 -20 -15 -23 -5 -3 -17 -21 -27 -40 -10
-19 -27 -35 -40 -37 -23 -4 -28 -18 -9 -24 7 -3 -2 -13 -19 -23 -17 -10 -37
-29 -44 -42 -7 -12 -20 -25 -31 -29 -10 -3 -18 -9 -18 -15 0 -14 -33 -49 -47
-49 -6 0 -19 -10 -27 -22 -9 -12 -16 -18 -16 -13 0 5 -9 -1 -20 -13 -12 -12
-26 -22 -32 -22 -6 0 -8 -11 -5 -30 5 -23 2 -33 -16 -45 -12 -8 -17 -15 -12
-15 6 0 -1 -6 -15 -13 -13 -7 -30 -23 -37 -37 -7 -14 -37 -50 -68 -82 -60 -61
-53 -58 -197 -73 -32 -4 -58 -11 -58 -16 0 -6 8 -10 18 -9 28 3 62 -11 62 -26
0 -8 14 -17 31 -21 20 -4 28 -10 25 -19 -3 -8 -1 -14 5 -14 6 0 7 -5 3 -11 -3
-6 0 -15 7 -20 8 -5 17 -3 21 4 6 9 8 9 8 0 0 -9 13 -7 48 4 26 9 49 20 52 24
3 5 23 10 44 13 22 3 46 11 54 19 10 10 27 13 55 9 28 -3 38 -2 33 6 -4 7 7
13 29 18 19 3 38 10 40 15 12 18 35 -3 29 -27 -4 -15 -2 -24 5 -24 6 0 11 5
11 10 0 6 9 10 20 10 25 0 26 -17 1 -25 -23 -7 -36 -35 -17 -35 13 0 76 -64
76 -76 0 -9 -43 -69 -52 -72 -4 -2 -8 -10 -8 -18 0 -9 5 -12 10 -9 6 3 10 -5
10 -19 0 -18 -4 -24 -15 -20 -17 7 -21 -21 -5 -31 6 -3 10 -1 10 4 0 6 7 11
16 11 9 0 14 -7 12 -17 -2 -10 -8 -18 -13 -18 -38 -1 -39 -45 -1 -45 12 0 16
-3 10 -8 -15 -10 -35 -72 -23 -72 5 0 4 -8 -2 -18 -8 -12 -9 -30 -4 -48 5 -16
7 -35 6 -43 -1 -7 2 -10 9 -6 22 13 58 -4 65 -32 3 -15 9 -23 13 -17 4 5 16
11 27 12 16 3 18 1 8 -9 -7 -7 -13 -17 -13 -21 0 -12 38 -10 45 2 13 21 27 9
21 -17 -4 -19 -4 -23 3 -14 5 7 14 10 20 7 7 -5 11 1 11 13 0 24 3 25 47 9 21
-8 33 -19 33 -30 0 -10 5 -18 10 -18 6 0 10 5 10 12 0 6 3 8 6 5 4 -4 2 -13
-5 -20 -9 -11 -8 -17 4 -27 17 -14 20 -76 4 -85 -7 -5 -5 -11 4 -18 8 -7 18
-39 21 -71 4 -33 14 -75 24 -95 16 -34 17 -35 20 -11 2 14 8 30 13 36 6 8 5
14 -4 17 -15 6 -29 55 -18 61 3 2 6 36 6 75 0 88 23 97 39 16 1 -5 9 -26 18
-45 11 -25 15 -56 12 -105 -2 -38 2 -86 8 -105 6 -19 11 -45 10 -57 -1 -15 4
-23 13 -23 8 0 15 -5 15 -11 0 -5 -4 -7 -10 -4 -5 3 -10 -1 -10 -9 0 -9 5 -16
10 -16 6 0 10 -6 10 -14 0 -8 5 -16 11 -18 5 -2 11 -11 12 -19 2 -9 10 -24 19
-32 9 -9 19 -30 23 -47 4 -17 13 -30 21 -30 9 0 12 -4 9 -10 -3 -5 -1 -10 4
-10 6 0 11 -7 11 -16 0 -16 43 -72 120 -154 23 -25 46 -55 51 -68 7 -17 14
-22 29 -17 16 5 23 -1 37 -29 9 -20 20 -36 23 -36 4 0 15 -18 26 -40 10 -22
22 -40 27 -40 4 0 7 -5 7 -11 0 -5 12 -35 27 -65 l27 -55 -21 -37 c-22 -39
-93 -100 -155 -133 -36 -18 -50 -39 -28 -39 17 0 94 33 111 47 55 46 9 -27
-65 -104 -22 -24 -37 -43 -34 -43 11 0 98 61 98 68 0 11 85 102 94 102 4 0 5
-17 2 -37 -3 -21 -6 -45 -7 -53 -2 -31 -29 -114 -43 -129 -7 -9 -16 -26 -19
-38 l-5 -23 165 0 165 0 34 37 c19 20 34 41 34 46 0 4 11 23 25 41 14 18 25
37 25 42 0 5 10 25 22 44 28 45 65 147 74 205 6 44 24 63 24 28 1 -17 1 -17
11 0 7 11 17 15 32 12 18 -5 22 -2 22 20 0 14 -3 25 -7 25 -5 0 -8 5 -8 10 0
6 6 9 13 8 7 -2 13 10 15 30 2 20 9 32 18 32 8 0 14 7 14 15 0 8 -6 15 -12 15
-9 0 -8 3 2 10 9 6 17 5 21 -1 3 -6 12 5 20 23 7 18 19 39 26 46 7 7 13 20 13
28 0 8 4 13 10 9 16 -10 64 50 101 124 18 38 42 72 52 74 9 3 17 15 17 27 0
16 4 20 16 16 9 -3 18 -6 20 -6 2 0 4 -6 4 -14 0 -8 4 -18 10 -21 13 -8 1 49
-22 104 -18 43 -18 43 3 62 12 11 34 19 49 19 27 0 28 -2 38 -77 14 -110 14
-151 1 -204 -10 -39 -9 -51 5 -79 18 -37 20 -104 6 -166 -16 -68 -22 -152 -12
-158 9 -5 31 69 31 104 -1 16 42 222 47 228 1 2 24 -18 51 -46 64 -65 91 -82
128 -81 l30 1 -36 12 c-44 13 -84 51 -93 89 -3 15 -13 27 -20 27 -8 0 -17 7
-20 16 -9 25 -7 27 11 13 15 -13 16 -9 10 49 -8 72 -1 112 18 112 8 0 17 15
20 32 4 18 13 40 20 48 7 8 15 26 17 40 l3 25 19 -27 c11 -17 15 -35 11 -45
-6 -17 -7 -17 -20 0 -9 13 -15 15 -20 7 -4 -7 -2 -17 4 -23 6 -6 11 -21 11
-34 0 -13 5 -23 10 -23 6 0 10 10 10 23 0 12 9 28 21 35 15 10 20 21 16 38 -3
20 0 24 20 24 14 0 26 7 29 18 3 9 12 30 20 45 7 16 14 35 14 43 0 8 4 14 10
14 5 0 14 19 20 43 6 23 20 59 30 80 11 22 20 45 20 53 0 7 9 18 20 24 17 9
22 7 32 -17 7 -15 15 -30 19 -33 15 -13 29 -52 29 -84 0 -20 4 -36 9 -36 13 0
41 46 41 68 0 11 8 30 19 43 10 13 16 30 13 37 -2 8 13 2 35 -12 41 -27 103
-45 103 -29 0 5 -12 16 -26 23 -22 12 -23 15 -8 20 10 4 32 2 49 -3 16 -6 36
-11 43 -13 6 -2 12 -12 12 -22 0 -10 11 -29 24 -41 14 -13 22 -29 19 -37 -3
-8 2 -15 11 -16 9 0 22 -1 29 -2 6 -1 11 7 9 17 -2 9 2 17 8 17 5 0 10 -11 10
-24 0 -14 5 -28 10 -31 6 -3 10 1 10 10 0 14 4 13 25 -6 26 -26 35 -50 10 -29
-8 7 -15 8 -15 2 0 -14 25 -33 33 -25 4 3 7 1 7 -5 0 -6 17 -9 46 -8 32 3 47
-1 51 -11 3 -8 13 -11 25 -7 15 4 22 -1 31 -25 9 -26 17 -31 44 -31 33 0 47
-23 21 -33 -13 -5 67 -46 90 -47 9 0 11 -7 7 -20 -5 -16 -2 -20 15 -20 12 0
39 -13 60 -30 21 -16 42 -30 48 -30 5 0 26 -15 46 -33 27 -25 35 -39 30 -52
-6 -15 -4 -17 10 -12 21 8 69 -40 61 -61 -2 -7 5 -22 17 -34 21 -21 22 -21 29
-2 6 15 8 16 8 2 1 -9 4 -18 9 -20 4 -2 15 -16 24 -33 9 -16 20 -29 25 -28 4
2 9 48 11 102 l3 100 -152 128 c-83 70 -197 163 -253 206 -55 43 -146 113
-201 157 -190 148 -220 171 -285 214 -36 24 -91 56 -123 71 -42 19 -57 31 -53
42 18 45 18 63 1 63 -14 0 -16 6 -12 28 6 29 5 29 -64 41 -38 7 -69 17 -69 22
0 5 5 9 11 9 15 0 41 28 35 39 -3 4 13 5 37 0 54 -10 67 -10 42 2 -15 7 -7 8
29 5 30 -2 43 -1 35 5 -8 5 -22 9 -32 9 -10 0 -15 5 -12 10 3 6 -1 10 -10 10
-15 0 -15 2 -1 15 8 8 23 17 33 19 61 12 83 19 83 26 0 5 17 14 38 20 33 10
96 38 172 74 14 7 45 19 70 26 25 7 52 19 61 27 8 7 31 16 50 19 19 4 45 12
59 19 39 20 212 92 240 100 14 4 54 21 90 37 105 49 124 57 153 67 25 10 27
15 27 61 0 27 -2 50 -4 50 -3 0 -17 -5 -33 -12 -15 -6 -30 -12 -33 -12 -3 -1
-12 -6 -20 -11 -14 -10 -51 -25 -185 -76 -33 -13 -61 -27 -63 -31 -2 -4 -9 -8
-16 -8 -7 0 -48 -18 -92 -40 -43 -22 -85 -40 -92 -40 -7 0 -20 -4 -30 -10 -46
-25 -191 -90 -202 -90 -7 0 -24 -8 -38 -19 -15 -10 -45 -24 -67 -31 -22 -7
-44 -16 -49 -21 -6 -5 -18 -9 -28 -9 -10 0 -18 -4 -18 -9 0 -8 -29 -19 -75
-28 -10 -2 -22 -7 -25 -11 -3 -4 -18 -14 -35 -22 -16 -8 -33 -19 -36 -23 -3
-4 -25 -10 -48 -13 -34 -4 -52 0 -88 21 -58 35 -69 22 -19 -21 31 -27 36 -35
22 -40 -9 -3 -13 -10 -10 -15 3 -5 1 -9 -5 -9 -18 0 -95 32 -112 47 -9 7 -23
11 -31 8 -17 -7 -81 44 -99 77 -21 40 7 38 37 -2 16 -22 32 -40 36 -40 16 0
-7 39 -49 85 -25 28 -40 43 -34 33 16 -22 -3 -32 -21 -10 -16 18 -52 93 -63
130 -9 33 8 27 23 -8 31 -68 33 -12 3 63 -6 16 -11 53 -11 83 0 56 -16 74 -23
27 -2 -16 -4 -1 -4 32 0 33 2 50 4 38 2 -13 8 -23 13 -23 15 0 22 34 25 116 1
45 8 90 14 100 5 11 11 15 11 9 0 -5 7 3 15 18 8 15 12 34 9 41 -3 7 2 19 11
26 8 7 15 18 15 26 0 7 9 18 19 23 17 10 18 8 11 -22 -4 -17 -15 -54 -24 -80
-9 -26 -16 -54 -16 -63 0 -8 -9 -24 -19 -35 -22 -23 -34 -59 -20 -59 5 0 9 7
9 15 0 8 4 15 9 15 5 0 7 -18 4 -40 -3 -23 -1 -40 4 -40 13 0 30 60 39 135 3
33 15 82 25 109 10 27 16 52 14 56 -3 4 2 20 9 36 8 16 17 56 20 89 3 33 9 74
14 90 9 33 7 128 -3 145 -4 6 -1 18 6 26 9 11 9 20 1 37 -19 37 -30 139 -22
192 14 78 12 93 -15 117 -24 22 -92 197 -108 275 -8 39 18 55 27 17 4 -14 11
-22 17 -19 12 8 1 74 -16 95 -7 8 -23 35 -35 60 -13 25 -33 58 -46 73 -13 16
-24 33 -24 39 0 5 -11 23 -25 40 -13 16 -29 47 -35 68 -6 22 -15 40 -20 40
-15 0 -63 109 -56 126 3 9 0 28 -8 42 -12 22 -26 77 -30 115 -1 4 -7 11 -14
16 -18 11 -29 91 -13 91 14 0 20 -14 24 -58 2 -18 11 -41 20 -50 16 -15 17
-15 17 5 0 18 -11 62 -41 159 -5 17 -9 40 -9 53 0 14 -4 20 -11 15 -8 -4 -9 1
-4 16 4 12 3 25 -1 29 -12 9 -34 48 -34 62 0 8 5 8 15 -1 13 -11 14 -10 9 6
-4 10 -10 24 -14 29 -9 14 -35 126 -33 145 1 8 -2 17 -7 20 -5 3 -11 17 -13
30 -9 48 -19 85 -27 105 -4 11 -18 54 -30 95 -13 41 -25 79 -29 85 -9 17 -9
49 1 69 8 15 7 18 -5 13 -11 -4 -13 0 -9 15 3 13 -1 25 -10 32 -18 14 -82 143
-81 165 1 9 -8 36 -19 61 -23 51 -26 62 -28 110 -1 28 -3 31 -9 15 -7 -17 -13
-11 -35 39 -14 32 -24 62 -21 67 9 13 -16 99 -47 165 -15 34 -28 67 -28 74 0
7 -9 29 -19 49 -11 20 -22 44 -25 54 -3 9 -17 22 -31 27 -18 7 -25 17 -25 35
0 14 -9 33 -21 43 -45 37 -55 48 -68 75 -8 15 -32 46 -53 68 -21 22 -38 46
-38 53 0 7 -46 58 -102 112 -195 188 -537 390 -763 450 -164 43 -404 61 -468
35 -39 -15 -108 -14 -144 4 -45 22 -289 56 -304 41z m392 -333 c-9 -16 -10
-16 -11 -1 0 9 3 25 7 35 7 16 8 17 11 1 2 -10 -1 -25 -7 -35z m259 15 c0 -7
7 -21 15 -32 13 -17 14 -16 22 14 l8 32 27 -25 c18 -17 24 -31 21 -48 -4 -23
-8 -24 -47 -19 -63 8 -116 57 -89 83 11 12 43 8 43 -5z m400 -314 c0 3 23 -17
50 -46 28 -29 50 -56 50 -61 0 -11 -5 -7 -82 66 -32 29 -58 57 -58 62 0 4 9 0
20 -10 11 -10 20 -15 20 -11z m-2003 -106 c-3 -8 -6 -5 -6 6 -1 11 2 17 5 13
3 -3 4 -12 1 -19z m-20 -45 c-3 -32 -10 -59 -16 -61 -6 -2 -11 -8 -11 -13 0
-6 -25 -41 -55 -79 -30 -38 -55 -73 -55 -78 0 -5 -16 -41 -35 -81 -19 -39 -35
-78 -35 -86 0 -7 -4 -16 -9 -19 -4 -3 -14 -27 -20 -53 -7 -27 -17 -58 -21 -70
-7 -16 -5 -23 5 -25 11 -3 11 -9 0 -42 -17 -49 -27 -59 -56 -54 l-23 3 28 30
c24 26 27 34 21 75 -4 28 0 72 8 111 8 35 18 87 22 114 10 74 35 165 56 209
10 22 19 46 19 53 0 19 29 73 39 73 5 0 4 -19 0 -42 -22 -104 -22 -105 -5
-111 11 -5 16 -1 16 13 0 11 4 20 9 20 5 0 12 12 15 26 4 14 16 35 27 47 12
12 32 39 45 60 13 20 27 37 30 37 3 0 4 -26 1 -57z m-106 -36 c-10 -9 -11 -8
-5 6 3 10 9 15 12 12 3 -3 0 -11 -7 -18z m2324 -36 c8 -14 24 -45 35 -68 11
-23 26 -48 33 -55 24 -23 149 -286 145 -304 -3 -17 -4 -17 -20 0 -10 10 -18
14 -18 9 0 -4 -7 3 -16 15 -19 28 -55 132 -49 142 3 4 -2 13 -10 20 -8 7 -20
30 -27 51 -6 22 -15 39 -20 39 -4 0 -8 8 -8 19 0 10 -6 24 -14 30 -8 7 -18 27
-22 44 -3 17 -18 50 -32 72 -15 24 -19 35 -9 26 10 -7 24 -25 32 -40z m-2092
-100 c3 -12 -3 -27 -14 -37 -18 -16 -19 -16 -19 13 0 44 23 61 33 24z m79 -26
c-2 -14 -8 -28 -13 -31 -5 -3 -9 -14 -9 -25 0 -11 -4 -18 -9 -15 -12 8 -44
-30 -76 -89 -15 -27 -33 -57 -41 -65 -12 -12 -14 -11 -14 12 0 15 5 30 10 33
6 3 10 14 10 23 -1 12 -5 10 -15 -8 -8 -14 -14 -19 -15 -11 0 21 30 51 52 51
11 0 18 7 18 20 0 11 5 20 10 20 6 0 10 6 10 13 0 13 69 95 81 96 3 1 4 -10 1
-24z m-247 -21 c-2 -38 -35 -81 -54 -70 -8 5 -7 12 4 22 8 9 15 21 15 27 0 11
27 57 33 57 2 0 2 -16 2 -36z m81 -11 c-4 -33 -44 -113 -57 -113 -4 0 -21 -21
-36 -47 -15 -27 -36 -57 -46 -68 -10 -11 -32 -49 -49 -83 -16 -35 -39 -73 -50
-84 l-21 -21 7 29 c11 44 41 105 48 98 4 -3 11 12 17 33 6 22 20 48 31 58 11
10 20 24 20 32 0 7 12 26 28 42 15 16 41 57 57 90 30 64 57 82 51 34z m274
-49 c0 -8 -5 -12 -10 -9 -6 4 -8 11 -5 16 9 14 15 11 15 -7z m1718 -2 c2 -8
-2 -10 -13 -5 -14 5 -16 2 -10 -18 6 -19 5 -21 -5 -13 -7 7 -9 21 -5 34 7 22
26 23 33 2z m-2161 -94 c-23 -57 -33 -50 -23 17 6 35 10 42 26 38 17 -5 17 -7
-3 -55z m266 -40 c-2 -5 -11 -8 -18 -8 -12 0 -12 5 -3 26 11 23 13 24 19 7 3
-10 5 -21 2 -25z m-111 10 c-7 -7 -12 -20 -12 -30 0 -10 -4 -18 -10 -18 -13 0
-13 3 2 35 6 14 16 25 22 25 6 0 5 -5 -2 -12z m2668 -29 c12 -22 20 -45 18
-50 -2 -6 -13 12 -25 40 -26 61 -21 67 7 10z m-2650 -19 c0 -5 -5 -10 -11 -10
-5 0 -7 5 -4 10 3 6 8 10 11 10 2 0 4 -4 4 -10z m-45 -52 c-4 -13 -16 -43 -28
-68 -17 -37 -21 -41 -24 -23 -5 25 33 113 48 113 6 0 8 -9 4 -22z m126 -79
c-12 -19 -21 -41 -21 -49 0 -8 -9 -26 -20 -40 -16 -20 -20 -22 -20 -7 0 9 5
17 11 17 5 0 8 4 4 10 -3 5 9 35 27 66 17 32 33 53 35 47 2 -6 -5 -26 -16 -44z
m-210 -101 c-17 -41 -37 -52 -27 -15 3 12 6 30 6 39 0 10 7 16 18 15 18 -1 18
-3 3 -39z m-221 -47 c-15 -28 -33 -27 -24 2 7 24 27 41 32 27 2 -5 -2 -18 -8
-29z m-33 -63 c-3 -8 -6 -5 -6 6 -1 11 2 17 5 13 3 -3 4 -12 1 -19z m2363 -13
c0 -8 -2 -15 -4 -15 -2 0 -6 7 -10 15 -3 8 -1 15 4 15 6 0 10 -7 10 -15z
m-2180 -40 c0 -26 -14 -33 -25 -15 -9 14 1 40 15 40 5 0 10 -11 10 -25z m-440
5 c0 -5 -5 -10 -11 -10 -5 0 -7 5 -4 10 3 6 8 10 11 10 2 0 4 -4 4 -10z m217
-32 c-3 -8 -6 -5 -6 6 -1 11 2 17 5 13 3 -3 4 -12 1 -19z m2519 -35 c-10 -10
-19 5 -10 18 6 11 8 11 12 0 2 -7 1 -15 -2 -18z m-36 -13 c0 -5 -4 -10 -10
-10 -5 0 -10 5 -10 10 0 6 5 10 10 10 6 0 10 -4 10 -10z m-2640 -81 c-7 -27
-17 -55 -24 -62 -6 -7 -17 -37 -24 -67 -6 -30 -14 -64 -17 -75 -14 -56 -17
-97 -6 -91 7 4 11 -1 11 -13 0 -25 -20 -38 -31 -20 -6 11 -9 8 -9 -8 0 -12 -4
-24 -9 -28 -15 -8 -25 15 -12 28 6 6 11 25 11 43 0 17 6 37 13 43 8 6 15 32
16 58 1 26 8 57 16 69 17 26 36 132 25 139 -10 6 -32 -20 -24 -28 4 -4 -1 -18
-10 -31 -9 -14 -16 -38 -16 -53 0 -15 -7 -48 -16 -73 -9 -25 -17 -60 -18 -78
-4 -47 -21 -35 -20 15 1 34 -2 40 -15 35 -9 -3 -21 -13 -28 -21 -19 -26 -28
12 -12 49 12 25 15 27 21 12 4 -11 7 -4 7 20 1 20 6 40 12 43 6 4 10 1 8 -6
-1 -8 -1 -27 0 -44 1 -30 2 -30 20 11 10 23 22 57 26 75 13 64 38 111 57 106
9 -3 25 1 35 8 24 18 27 4 13 -56z m-164 -34 c-5 -18 -13 -25 -29 -24 -12 0
-16 3 -9 6 6 2 12 10 12 17 0 14 21 38 28 31 2 -2 2 -16 -2 -30z m-57 -77 c-5
-18 -9 -45 -9 -60 0 -16 -4 -28 -10 -28 -14 0 -13 32 2 80 15 48 31 54 17 8z
m3041 3 c0 -5 -7 -12 -16 -15 -14 -5 -15 -4 -4 9 14 17 20 19 20 6z m18 -25
c-7 -8 -15 -12 -17 -11 -5 6 10 25 20 25 5 0 4 -6 -3 -14z m-2431 -178 c-3 -7
-5 -2 -5 12 0 14 2 19 5 13 2 -7 2 -19 0 -25z m-590 -10 c-3 -7 -5 -2 -5 12 0
14 2 19 5 13 2 -7 2 -19 0 -25z m584 -74 l-9 -39 -1 50 c-1 33 2 46 9 39 7 -7
7 -24 1 -50z m-592 -51 c-7 -29 -16 -53 -21 -53 -11 0 -10 8 3 72 16 76 22 88
27 58 2 -14 -2 -49 -9 -77z m640 -100 c-12 -53 -22 -65 -32 -39 -5 13 18 165
31 201 13 36 14 -108 1 -162z m-129 32 c-4 -34 -17 -92 -28 -130 -11 -39 -26
-94 -33 -122 -13 -56 -33 -75 -22 -23 4 25 3 29 -10 24 -8 -3 -18 -17 -21 -30
-10 -37 -26 -19 -19 21 4 23 2 35 -6 35 -8 0 -8 5 1 20 10 16 9 23 -11 44 -17
18 -22 32 -17 50 3 13 2 26 -4 28 -6 2 -6 8 0 18 8 13 10 12 10 -2 0 -10 5
-18 10 -18 6 0 10 5 10 10 0 6 7 10 15 10 8 0 17 12 20 28 4 15 12 38 19 52 7
14 16 38 20 54 5 22 10 26 18 18 9 -9 16 -4 26 21 l15 32 8 -40 c4 -22 4 -67
-1 -100z m-440 86 c0 -10 9 -21 19 -24 19 -5 19 -6 0 -62 -10 -32 -19 -69 -19
-82 0 -31 -17 -63 -34 -63 -8 0 -12 -8 -9 -23 4 -21 1 -24 -26 -24 -25 0 -33
5 -37 24 -4 13 -1 29 5 37 6 7 12 42 14 76 1 38 7 65 14 67 6 2 13 -2 16 -9 2
-7 3 -5 1 6 -1 10 1 26 6 35 4 9 13 29 19 44 12 30 31 28 31 -2z m20 14 c0 -8
-2 -15 -4 -15 -2 0 -6 7 -10 15 -3 8 -1 15 4 15 6 0 10 -7 10 -15z m192 -163
c-7 -22 -12 -65 -12 -97 0 -50 -2 -56 -15 -45 -13 10 -15 9 -15 -9 0 -12 -4
-19 -10 -16 -15 9 -12 47 5 69 8 11 15 36 15 56 0 51 19 105 33 91 7 -7 7 -22
-1 -49z m2447 14 c9 -11 8 -15 -5 -20 -23 -9 -24 -8 -24 14 0 23 13 26 29 6z
m-2508 -49 c-8 -8 -11 -7 -11 4 0 20 13 34 18 19 3 -7 -1 -17 -7 -23z m386
-29 c-3 -8 -6 -5 -6 6 -1 11 2 17 5 13 3 -3 4 -12 1 -19z m2186 -51 c57 -60
57 -61 21 -85 -35 -23 -114 -41 -114 -26 0 5 9 23 20 39 11 17 20 45 20 63 0
39 21 43 53 9z m-183 -7 c0 -11 -4 -20 -10 -20 -5 0 -10 9 -10 20 0 11 5 20
10 20 6 0 10 -9 10 -20z m-2403 -52 c-3 -8 -6 -5 -6 6 -1 11 2 17 5 13 3 -3 4
-12 1 -19z m-290 -10 c-3 -8 -6 -5 -6 6 -1 11 2 17 5 13 3 -3 4 -12 1 -19z
m3301 -43 c3 -49 1 -57 -13 -52 -13 5 -14 3 -5 -13 14 -27 13 -32 -7 -22 -10
5 -23 7 -30 5 -14 -5 -27 14 -14 22 6 3 7 27 4 55 -4 34 -2 50 5 50 6 0 9 -7
5 -16 -4 -12 -1 -15 13 -12 11 2 20 13 22 26 6 40 17 16 20 -43z m292 50 c0
-8 -4 -15 -10 -15 -5 0 -10 7 -10 15 0 8 5 15 10 15 6 0 10 -7 10 -15z m40
-171 c9 -38 10 -58 3 -62 -6 -4 -10 -25 -10 -47 0 -48 -11 -85 -24 -85 -6 0
-8 29 -5 73 2 39 5 96 5 125 1 28 5 52 9 52 5 0 15 -25 22 -56z m357 -6 c-3
-8 -6 -5 -6 6 -1 11 2 17 5 13 3 -3 4 -12 1 -19z m10 -40 c-3 -8 -6 -5 -6 6
-1 11 2 17 5 13 3 -3 4 -12 1 -19z m-3970 -50 c-3 -7 -5 -2 -5 12 0 14 2 19 5
13 2 -7 2 -19 0 -25z m103 -96 c0 -7 -4 -10 -10 -7 -5 3 -10 16 -10 28 0 18 2
19 10 7 5 -8 10 -21 10 -28z m100 22 c0 -8 -4 -12 -10 -9 -5 3 -10 10 -10 16
0 5 5 9 10 9 6 0 10 -7 10 -16z m64 -59 c13 -93 18 -115 27 -109 5 3 9 0 9 -6
0 -6 -7 -13 -15 -16 -18 -7 -20 -30 -2 -37 7 -4 6 -6 -4 -6 -9 -1 -20 -13 -24
-28 l-8 -28 -8 35 c-9 41 1 278 11 258 4 -7 11 -35 14 -63z m-274 -1 c0 -12
-7 -24 -15 -28 -17 -6 -18 -2 -9 44 7 34 24 23 24 -16z m107 -66 c-3 -8 -6 -5
-6 6 -1 11 2 17 5 13 3 -3 4 -12 1 -19z m307 -111 c4 -21 10 -45 13 -54 5 -12
1 -14 -18 -9 -13 3 -18 3 -11 0 17 -8 15 -24 -3 -24 -8 0 -15 9 -15 20 0 13
-7 20 -19 20 -24 0 -36 45 -26 105 12 84 59 49 79 -58z m-264 32 c0 -27 -17
-23 -22 5 -4 17 -1 23 9 19 7 -3 13 -14 13 -24z m-170 -101 c0 -16 -3 -19 -11
-11 -6 6 -8 16 -5 22 11 17 16 13 16 -11z m353 -39 c-3 -12 -9 -17 -15 -11
-10 10 0 44 12 37 5 -3 6 -14 3 -26z m197 -89 c3 -27 -8 -60 -19 -60 -8 0 -31
90 -31 122 0 17 3 16 24 -9 13 -16 25 -40 26 -53z m-349 23 c-9 -15 -10 -12
-10 17 0 29 1 32 10 18 7 -12 7 -24 0 -35z m352 -165 c3 -21 2 -38 -2 -38 -9
0 -21 60 -20 95 l0 20 8 -20 c4 -11 11 -37 14 -57z m3364 35 c-3 -10 -5 -4 -5
12 0 17 2 24 5 18 2 -7 2 -21 0 -30z m-3967 17 c0 -5 -2 -10 -4 -10 -3 0 -8 5
-11 10 -3 6 -1 10 4 10 6 0 11 -4 11 -10z m-393 -32 c-3 -8 -6 -5 -6 6 -1 11
2 17 5 13 3 -3 4 -12 1 -19z m4217 -4 c3 -8 2 -12 -4 -9 -6 3 -10 10 -10 16 0
14 7 11 14 -7z m-3327 -131 c-3 -10 -5 -2 -5 17 0 19 2 27 5 18 2 -10 2 -26 0
-35z m3199 -253 c4 -25 13 -58 21 -73 13 -27 46 -187 40 -194 -3 -2 -12 27
-58 182 -19 64 -37 184 -43 275 l-5 95 19 -120 c11 -66 22 -140 26 -165z
m-3856 238 c0 -21 -3 -29 -10 -22 -5 5 -7 19 -4 32 9 31 14 27 14 -10z m146
-45 c-11 -11 -19 6 -11 24 8 17 8 17 12 0 3 -10 2 -21 -1 -24z m126 -35 c-7
-7 -12 -8 -12 -2 0 14 12 26 19 19 2 -3 -1 -11 -7 -17z m-279 -15 c-17 -6 -16
-23 1 -23 9 0 14 -12 15 -32 2 -73 12 -98 40 -98 14 0 14 -16 0 -41 -6 -11
-12 -28 -14 -37 -2 -9 -7 -28 -11 -42 -6 -24 -6 -24 9 -5 8 11 17 30 21 43 7
22 26 31 26 12 0 -27 -26 -90 -37 -90 -7 0 -13 -6 -13 -14 0 -7 -6 -19 -14
-25 -10 -8 -13 -23 -9 -47 3 -20 1 -34 -5 -34 -6 0 -13 18 -17 40 -6 38 -28
55 -37 28 -7 -19 -28 1 -27 25 1 17 2 18 6 5 6 -22 23 -24 23 -2 0 23 39 74
56 74 8 0 14 7 14 15 0 8 -6 12 -14 9 -13 -5 -30 28 -27 50 1 5 -1 16 -5 25
-10 26 -14 93 -8 134 4 26 11 37 22 36 11 0 12 -2 5 -6z m167 -49 c0 -8 -4
-14 -8 -14 -9 0 -32 -59 -32 -83 0 -9 -4 -17 -9 -17 -10 0 -3 83 10 117 9 24
39 22 39 -3z m490 22 c0 -3 -4 -8 -10 -11 -5 -3 -10 -1 -10 4 0 6 5 11 10 11
6 0 10 -2 10 -4z m3364 -62 c38 -38 45 -54 22 -54 -12 0 -66 67 -66 83 0 12 7
8 44 -29z m-3914 1 c0 -8 -4 -15 -10 -15 -5 0 -7 7 -4 15 4 8 8 15 10 15 2 0
4 -7 4 -15z m130 -4 c0 -6 -4 -13 -10 -16 -5 -3 -10 1 -10 9 0 9 5 16 10 16 6
0 10 -4 10 -9z m396 -18 c-10 -10 -19 5 -10 18 6 11 8 11 12 0 2 -7 1 -15 -2
-18z m-430 -20 c-11 -11 -17 4 -9 23 7 18 8 18 11 1 2 -10 1 -21 -2 -24z
m-446 5 c0 -16 -3 -19 -11 -11 -6 6 -8 16 -5 22 11 17 16 13 16 -11z m857 -20
c-3 -8 -6 -5 -6 6 -1 11 2 17 5 13 3 -3 4 -12 1 -19z m-304 -13 c-7 -21 -13
-19 -13 6 0 11 4 18 10 14 5 -3 7 -12 3 -20z m184 3 c-3 -8 -6 -5 -6 6 -1 11
2 17 5 13 3 -3 4 -12 1 -19z m3613 1 c0 -6 -4 -7 -10 -4 -5 3 -10 11 -10 16 0
6 5 7 10 4 6 -3 10 -11 10 -16z m-379 -137 c5 -2 9 -12 9 -23 0 -10 4 -19 8
-19 4 0 8 -17 8 -37 0 -20 5 -38 12 -41 7 -2 12 -17 12 -33 0 -16 4 -29 10
-29 5 0 7 22 4 53 -4 38 -3 48 5 37 6 -8 11 -21 11 -28 0 -8 6 -28 14 -45 16
-39 36 -109 36 -130 0 -10 -6 -13 -20 -10 -11 3 -20 0 -20 -6 0 -6 9 -11 20
-11 20 0 20 -1 5 -30 -19 -37 -35 -31 -35 13 0 36 -38 163 -39 132 -4 -73 -81
180 -87 285 l-3 55 20 -65 c12 -36 25 -66 30 -68z m-3568 88 c-3 -11 -9 -20
-14 -20 -10 0 -12 24 -2 33 13 13 21 7 16 -13z m426 -45 l0 -20 -9 20 c-5 11
-9 29 -9 40 l0 20 9 -20 c5 -11 9 -29 9 -40z m3500 4 c22 -47 21 -85 -1 -46
-7 14 -13 15 -23 7 -15 -13 -30 3 -20 21 4 6 -2 13 -14 16 -24 6 -25 8 -11 34
19 34 45 23 69 -32z m-4109 12 c0 -17 -27 -37 -37 -27 -6 6 20 46 29 46 5 0 8
-9 8 -19z m-70 -29 c0 -10 4 -22 10 -28 6 -6 5 -15 -1 -24 -9 -13 -10 -12 -6
2 3 9 -1 22 -9 28 -16 14 -19 40 -4 40 6 0 10 -8 10 -18z m4288 -7 c-3 -3 -9
2 -12 12 -6 14 -5 15 5 6 7 -7 10 -15 7 -18z m181 -50 l0 -20 -9 20 c-5 11 -9
29 -9 40 l0 20 9 -20 c5 -11 9 -29 9 -40z m-4644 35 c3 -5 1 -10 -4 -10 -6 0
-11 5 -11 10 0 6 2 10 4 10 3 0 8 -4 11 -10z m632 -42 c-3 -8 -6 -5 -6 6 -1
11 2 17 5 13 3 -3 4 -12 1 -19z m3793 -51 c0 -13 4 -27 9 -32 5 -6 14 -28 21
-50 7 -22 16 -44 20 -50 4 -5 10 -50 14 -99 6 -68 4 -87 -5 -84 -23 8 -36 38
-20 47 9 6 10 11 2 15 -6 4 -11 16 -11 26 0 14 -6 19 -22 17 -15 -1 -26 5 -33
21 -5 12 -15 22 -22 22 -9 0 -9 -8 2 -32 7 -18 16 -59 20 -90 4 -32 10 -58 14
-58 12 0 -7 -147 -23 -179 -9 -17 -18 -31 -19 -31 -3 0 -5 53 -8 180 0 14 2
47 4 74 3 53 -15 146 -26 129 -4 -6 -4 -18 -1 -27 3 -9 1 -16 -5 -16 -7 0 -11
22 -11 56 0 30 -5 64 -11 76 -13 24 -7 32 20 23 16 -5 21 -15 21 -40 0 -44 10
-49 48 -22 37 26 38 30 12 67 -14 20 -19 37 -14 54 8 32 24 34 24 3z m-1033
-22 c-7 -13 -14 -20 -15 -14 -5 14 6 39 17 39 5 0 4 -11 -2 -25z m1213 -17 c8
-13 13 -27 12 -31 -2 -8 40 -167 54 -201 5 -14 3 -17 -7 -14 -7 2 -18 22 -24
44 -5 21 -14 46 -20 54 -20 31 -37 86 -39 128 -1 48 3 51 24 20z m-4170 -7 c0
-6 -4 -13 -10 -16 -5 -3 -10 1 -10 9 0 9 5 16 10 16 6 0 10 -4 10 -9z m-274
-58 c-11 -11 -19 6 -11 24 8 17 8 17 12 0 3 -10 2 -21 -1 -24z m4371 -55 c-3
-8 -6 -5 -6 6 -1 11 2 17 5 13 3 -3 4 -12 1 -19z m-472 -106 c10 -76 28 -152
35 -152 4 0 7 -16 8 -35 1 -19 -3 -35 -8 -35 -6 0 -10 10 -10 23 0 12 -5 29
-10 37 -8 12 -11 13 -19 1 -6 -9 -11 -10 -15 -2 -9 13 -16 208 -8 215 11 12
21 -7 27 -52z m-3718 -14 c-3 -8 -6 -5 -6 6 -1 11 2 17 5 13 3 -3 4 -12 1 -19z
m-237 -2 c0 -3 -4 -8 -10 -11 -5 -3 -10 -1 -10 4 0 6 5 11 10 11 6 0 10 -2 10
-4z m943 -127 c20 -42 37 -81 37 -87 0 -6 14 -36 31 -68 25 -45 29 -58 18 -65
-39 -25 -89 8 -89 58 0 12 -5 25 -11 29 -13 8 -43 75 -53 118 -6 26 -5 28 8
17 9 -8 16 -21 16 -29 0 -10 3 -12 9 -6 6 5 3 31 -9 68 -11 32 -17 63 -13 70
5 7 9 3 13 -9 3 -11 22 -54 43 -96z m3508 58 c-14 -14 -26 17 -16 41 6 15 8
14 16 -7 6 -16 6 -28 0 -34z m-1511 33 c0 -5 -4 -10 -10 -10 -5 0 -10 5 -10
10 0 6 5 10 10 10 6 0 10 -4 10 -10z m1100 -35 c7 -14 19 -25 26 -25 14 0 34
-30 34 -49 0 -6 -7 -11 -16 -11 -10 0 -14 6 -10 15 3 9 0 15 -8 15 -8 0 -17 7
-20 16 -3 8 -10 12 -16 9 -5 -3 -10 -3 -10 2 0 4 -3 18 -6 31 -8 30 9 28 26
-3z m-3873 -7 c-3 -8 -6 -5 -6 6 -1 11 2 17 5 13 3 -3 4 -12 1 -19z m3833 12
c0 -5 -4 -10 -10 -10 -5 0 -10 5 -10 10 0 6 5 10 10 10 6 0 10 -4 10 -10z
m-170 -55 c0 -19 -4 -35 -10 -35 -11 0 -14 53 -3 63 11 12 13 8 13 -28z
m-2990 -15 c0 -5 11 -33 24 -63 14 -29 35 -79 46 -111 21 -55 21 -58 5 -93
-10 -20 -17 -56 -17 -80 1 -34 -2 -43 -16 -44 -10 0 -12 -3 -4 -6 13 -5 17
-43 5 -43 -11 0 -53 67 -53 83 0 7 -4 17 -8 22 -5 6 -17 37 -26 70 -10 33 -22
71 -27 84 -13 31 -3 40 16 15 19 -25 19 -14 -1 52 -8 30 -14 66 -12 81 4 26 7
23 33 -32 29 -60 46 -62 26 -3 -14 39 -14 78 -1 78 6 0 10 -4 10 -10z m-150
-50 c0 -11 -2 -20 -4 -20 -2 0 -6 9 -9 20 -3 11 -1 20 4 20 5 0 9 -9 9 -20z
m3131 -43 c-13 -13 -15 11 -4 40 7 16 8 15 11 -6 2 -13 -1 -28 -7 -34z m-3371
-66 c14 -69 40 -91 40 -36 0 19 5 35 10 35 6 0 10 -8 10 -18 0 -10 4 -22 9
-27 5 -6 16 -34 26 -64 10 -30 29 -66 42 -79 27 -27 25 -72 -2 -72 -8 0 -15
-7 -15 -15 0 -8 -5 -15 -11 -15 -8 0 -9 -20 -4 -62 8 -73 -10 -71 -26 3 -5 24
-14 53 -19 64 -9 21 -25 87 -40 168 -5 27 -14 55 -21 63 -6 8 -9 14 -5 14 4 0
0 13 -9 30 -16 32 -20 70 -6 70 4 0 14 -27 21 -59z m3382 14 c4 -15 4 -33 1
-38 -9 -15 -33 23 -33 51 0 32 22 23 32 -13z m198 -75 c12 -47 23 -101 24
-120 1 -45 29 -49 34 -5 l4 30 12 -29 c10 -25 9 -35 -12 -75 -13 -27 -22 -61
-21 -81 4 -70 0 -90 -18 -90 -15 0 -15 -2 -4 -9 13 -8 13 -15 1 -50 -7 -23
-19 -41 -26 -41 -7 0 -22 -16 -34 -35 -18 -29 -25 -33 -36 -24 -12 10 -7 24
26 87 41 77 48 109 17 78 -9 -10 -14 -22 -11 -28 3 -5 -3 -18 -15 -29 -12 -11
-21 -26 -21 -34 0 -8 -4 -15 -10 -15 -5 0 -19 -9 -31 -21 -35 -35 -42 -9 -15
52 25 57 46 81 74 86 10 1 24 11 34 23 11 14 18 16 21 8 3 -8 9 -1 15 14 12
30 1 126 -15 137 -13 8 -22 68 -28 191 -6 110 3 105 35 -20z m341 63 c-9 -16
-10 -16 -11 -1 0 9 3 25 7 35 7 16 8 17 11 1 2 -10 -1 -25 -7 -35z m-4301 -39
c0 -12 8 -39 17 -60 15 -34 18 -36 21 -16 2 12 8 22 13 22 6 0 7 -25 3 -62 -7
-70 -7 -64 2 -133 8 -60 40 -132 66 -148 22 -14 23 -27 3 -27 -9 0 -18 7 -22
15 -5 13 -8 13 -20 -5 -8 -12 -12 -27 -9 -35 3 -8 -2 -19 -11 -24 -14 -7 -18
-19 -22 -65 -2 -20 -10 2 -29 74 -29 111 -33 147 -17 154 9 3 16 -6 20 -26 6
-26 9 -29 17 -14 6 10 6 35 -1 69 -6 28 -10 59 -9 67 3 36 -3 61 -12 55 -7 -4
-9 2 -4 19 3 15 2 26 -4 26 -5 0 -13 32 -16 71 -4 39 -10 78 -13 88 -3 12 -1
12 11 -3 9 -11 16 -30 16 -42z m-90 11 c0 -8 -2 -15 -4 -15 -2 0 -6 7 -10 15
-3 8 -1 15 4 15 6 0 10 -7 10 -15z m4676 -22 c-11 -11 -17 4 -9 23 7 18 8 18
11 1 2 -10 1 -21 -2 -24z m-4526 1 c0 -8 -4 -12 -10 -9 -5 3 -10 10 -10 16 0
5 5 9 10 9 6 0 10 -7 10 -16z m180 -6 c0 -18 -2 -20 -9 -8 -6 8 -7 18 -5 22 9
14 14 9 14 -14z m3800 2 c0 -11 -4 -20 -9 -20 -5 0 -7 9 -4 20 3 11 7 20 9 20
2 0 4 -9 4 -20z m-4010 -16 c0 -8 -4 -12 -10 -9 -5 3 -10 13 -10 21 0 8 5 12
10 9 6 -3 10 -13 10 -21z m528 -1 c14 -31 16 -63 4 -63 -8 0 -32 58 -32 78 0
21 15 13 28 -15z m3202 -7 c0 -13 -8 -30 -17 -37 -15 -13 -16 -11 -10 11 4 14
7 31 7 38 0 6 5 12 10 12 6 0 10 -11 10 -24z m930 10 c0 -3 -4 -8 -10 -11 -5
-3 -10 -1 -10 4 0 6 5 11 10 11 6 0 10 -2 10 -4z m-4440 -32 c0 14 38 -31 60
-71 17 -32 30 -43 47 -43 20 0 23 -6 25 -37 4 -74 5 -88 13 -117 5 -17 4 -31
-3 -35 -15 -9 -32 -57 -32 -91 0 -16 -5 -32 -11 -36 -6 -3 -8 -16 -5 -29 7
-28 -11 -83 -36 -109 -10 -11 -18 -25 -18 -32 0 -6 -7 -17 -15 -24 -13 -11
-15 -8 -15 14 0 14 5 26 11 26 16 0 4 54 -18 79 -17 20 -17 20 -32 -12 -21
-48 -25 -14 -8 82 14 83 10 98 -17 59 -17 -23 -22 -14 -7 11 12 18 -3 67 -19
63 -9 -2 -11 9 -5 45 7 53 25 82 25 42 0 -14 -5 -30 -12 -37 -9 -9 -9 -15 0
-24 9 -9 12 -8 12 7 0 17 1 17 20 0 19 -18 20 -17 20 3 0 27 16 28 32 2 18
-29 24 -25 42 27 22 65 21 110 -4 123 -10 6 -22 26 -26 45 -3 19 -9 35 -13 35
-7 0 -14 -47 -13 -89 0 -15 -7 -25 -19 -28 -10 -3 -19 -12 -19 -19 0 -8 -4
-14 -10 -14 -5 0 -10 4 -10 9 0 6 5 13 10 16 6 3 10 15 10 26 0 11 5 17 10 14
6 -3 10 1 10 9 0 9 -4 16 -10 16 -14 0 -13 43 2 58 8 8 8 15 0 25 -15 18 -3
30 15 16 7 -6 13 -8 13 -5z m-140 -65 c5 -16 7 -29 4 -29 -5 0 -18 31 -28 70
-6 22 -5 22 4 7 7 -10 16 -32 20 -48z m4053 4 c-3 -21 -10 -42 -16 -48 -6 -7
-8 1 -3 24 3 18 6 40 6 47 0 8 4 14 9 14 6 0 7 -17 4 -37z m526 -56 c1 -27 6
-60 11 -73 6 -14 10 -36 10 -49 0 -23 11 -50 66 -157 13 -27 22 -48 18 -48
-16 0 -44 23 -44 36 0 8 -6 17 -14 20 -8 3 -21 23 -30 44 -8 21 -20 41 -26 45
-5 3 -10 16 -10 29 0 12 -6 31 -14 41 -10 14 -11 26 -4 45 5 13 7 39 3 57 -3
17 -1 34 5 38 5 3 10 18 11 33 1 45 15 -4 18 -61z m-4112 47 c15 -14 14 -16
-7 -12 -13 1 -25 9 -28 16 -5 17 16 15 35 -4z m3313 7 c0 -6 -4 -13 -10 -16
-5 -3 -10 1 -10 9 0 9 5 16 10 16 6 0 10 -4 10 -9z m-3524 -38 c-11 -11 -17 4
-9 23 7 18 8 18 11 1 2 -10 1 -21 -2 -24z m-226 -59 c0 -26 -4 -32 -15 -28
-10 4 -15 20 -15 46 0 35 2 39 15 28 8 -7 15 -28 15 -46z m576 -78 c-9 -30
-17 -65 -17 -78 -1 -19 -2 -20 -6 -4 -3 11 0 44 6 75 5 31 14 74 18 96 l7 40
4 -38 c2 -21 -4 -62 -12 -91z m3424 104 c0 -5 -5 -10 -11 -10 -5 0 -7 5 -4 10
3 6 8 10 11 10 2 0 4 -4 4 -10z m690 -11 c0 -5 -4 -9 -10 -9 -5 0 -10 7 -10
16 0 8 5 12 10 9 6 -3 10 -10 10 -16z m-4853 -16 c11 -30 7 -53 -8 -53 -6 0
-7 4 -4 10 3 5 -1 20 -9 32 -20 28 -20 38 -2 38 8 0 18 -12 23 -27z m4104 -56
c-8 -8 -11 -1 -11 24 0 46 14 60 18 19 2 -18 -1 -37 -7 -43z m-4139 28 c6 -29
-7 -34 -15 -6 -4 17 0 31 9 31 1 0 4 -11 6 -25z m285 -7 c-3 -8 -6 -5 -6 6 -1
11 2 17 5 13 3 -3 4 -12 1 -19z m3480 -10 c-3 -8 -6 -5 -6 6 -1 11 2 17 5 13
3 -3 4 -12 1 -19z m423 9 c0 -6 -16 -57 -36 -112 -25 -69 -37 -122 -39 -170
-2 -38 -7 -92 -10 -118 -8 -56 13 -177 32 -184 7 -3 13 -15 13 -26 0 -16 -3
-18 -12 -9 -8 8 -17 8 -30 1 -29 -15 -41 0 -17 20 l22 18 -43 41 c-23 23 -38
42 -33 42 5 0 14 -5 20 -11 7 -7 12 -4 16 10 3 12 1 19 -4 15 -5 -3 -9 6 -9
20 0 14 -4 26 -10 26 -6 0 -9 3 -8 8 0 4 -2 15 -7 25 -5 12 -1 33 13 60 11 23
27 85 36 137 17 99 29 132 58 164 10 11 20 28 24 38 6 20 24 25 24 5z m-3980
-44 c0 -20 -3 -24 -11 -16 -7 7 -9 19 -6 27 10 24 17 19 17 -11z m360 13 c0
-3 -4 -8 -10 -11 -5 -3 -10 -1 -10 4 0 6 5 11 10 11 6 0 10 -2 10 -4z m3197
-18 c-3 -8 -6 -5 -6 6 -1 11 2 17 5 13 3 -3 4 -12 1 -19z m233 -3 c0 -8 -4
-15 -10 -15 -5 0 -10 7 -10 15 0 8 5 15 10 15 6 0 10 -7 10 -15z m114 0 c-6
-16 -24 -21 -24 -7 0 11 11 22 21 22 5 0 6 -7 3 -15z m337 -32 c-8 -15 -10
-15 -11 -2 0 17 10 32 18 25 2 -3 -1 -13 -7 -23z m114 -79 c-4 -37 -11 -54
-21 -54 -8 0 -14 -6 -14 -14 0 -20 -19 -31 -32 -18 -6 6 -3 23 11 50 12 23 21
46 21 52 0 19 34 64 38 51 2 -7 1 -37 -3 -67z m-4505 -54 c0 -11 -4 -20 -9
-20 -5 0 -7 9 -4 20 3 11 7 20 9 20 2 0 4 -9 4 -20z m178 1 c3 -8 -1 -12 -9
-9 -7 2 -15 10 -17 17 -3 8 1 12 9 9 7 -2 15 -10 17 -17z m312 -45 c0 -6 -7
-20 -15 -30 -8 -11 -15 -28 -15 -37 0 -9 -11 -37 -25 -60 -22 -39 -25 -41 -26
-19 -1 14 0 34 1 45 1 11 3 33 4 50 1 23 6 30 21 30 11 0 21 6 21 13 1 6 2 22
3 35 2 21 2 22 16 3 8 -11 15 -25 15 -30z m-400 7 c0 -26 -1 -26 -15 -7 -19
25 -19 34 0 34 10 0 15 -10 15 -27z m4020 -8 c0 -8 -4 -15 -10 -15 -5 0 -7 7
-4 15 4 8 8 15 10 15 2 0 4 -7 4 -15z m-4060 -81 c-5 -16 -12 -41 -15 -56 -3
-16 -10 -28 -15 -28 -22 0 -3 96 23 112 17 10 18 5 7 -28z m-63 4 c-3 -8 -6
-5 -6 6 -1 11 2 17 5 13 3 -3 4 -12 1 -19z m1049 -38 c1 -22 -2 -37 -7 -34 -5
3 -9 -3 -9 -13 0 -26 -37 -92 -76 -136 -19 -20 -34 -41 -34 -45 0 -11 -102
-94 -108 -88 -2 3 4 17 14 33 11 15 28 46 39 68 22 44 45 73 45 56 0 -6 6 -11
13 -11 12 0 97 163 97 187 0 6 6 14 13 16 6 3 12 6 12 6 0 1 1 -17 1 -39z
m2742 7 c-4 -24 -48 -79 -48 -59 0 18 33 82 42 82 5 0 7 -10 6 -23z m-3678 3
c0 -5 -5 -10 -11 -10 -5 0 -7 5 -4 10 3 6 8 10 11 10 2 0 4 -4 4 -10z m479
-60 c4 0 13 6 20 13 7 6 3 -13 -9 -43 -18 -45 -21 -67 -16 -125 4 -59 2 -75
-14 -100 -11 -17 -20 -36 -20 -43 0 -8 -10 -22 -22 -32 -12 -9 -33 -39 -47
-65 -25 -47 -62 -78 -47 -40 5 13 2 16 -9 11 -12 -4 -13 -2 -7 12 5 9 12 34
16 55 4 20 10 37 15 37 7 0 43 73 41 87 0 7 -5 9 -37 12 -7 0 -13 6 -13 12 0
6 6 9 13 6 18 -7 42 13 49 41 7 25 5 26 -23 11 -11 -5 -17 -14 -14 -19 3 -5 1
-11 -5 -15 -18 -11 -11 21 10 43 11 12 20 26 20 32 0 5 4 10 9 10 5 0 12 16
15 35 4 19 16 39 26 45 13 7 20 21 20 39 0 39 14 49 18 12 2 -17 7 -31 11 -31z
m4639 39 c-10 -7 -9 -9 5 -9 9 0 17 -7 17 -15 0 -8 -7 -15 -15 -15 -8 0 -15 7
-15 15 0 9 -7 18 -16 22 -12 4 -13 8 -3 13 7 5 19 6 26 3 12 -5 12 -7 1 -14z
m-533 -19 c3 -5 -1 -10 -10 -10 -9 0 -13 5 -10 10 3 6 8 10 10 10 2 0 7 -4 10
-10z m-784 -48 c-13 -25 -40 -46 -48 -39 -9 10 26 57 43 57 11 0 12 -4 5 -18z
m-3496 -32 c-23 -26 -29 -20 -14 14 8 18 16 23 22 17 7 -7 4 -17 -8 -31z
m2392 -3 c-6 -20 -27 -19 -27 2 0 14 5 19 15 14 9 -3 14 -10 12 -16z m-2687
-58 c3 -30 0 -73 -7 -97 -16 -57 -53 -122 -70 -122 -15 0 -17 16 -3 25 6 3 10
16 10 28 -1 21 -2 21 -25 -5 -20 -24 -45 -37 -45 -24 0 12 35 85 56 115 13 20
24 42 24 50 0 25 34 91 44 88 6 -2 13 -28 16 -58z m5245 30 c15 -15 -19 -11
-56 6 l-34 16 40 -6 c22 -4 44 -11 50 -16z m-1525 -19 c0 -5 -7 -10 -15 -10
-8 0 -15 5 -15 10 0 6 7 10 15 10 8 0 15 -4 15 -10z m-920 -4 c0 -3 -4 -8 -10
-11 -5 -3 -10 -1 -10 4 0 6 5 11 10 11 6 0 10 -2 10 -4z m90 -26 c0 -5 -5 -10
-11 -10 -5 0 -7 5 -4 10 3 6 8 10 11 10 2 0 4 -4 4 -10z m-1904 -21 c3 -6 2
-14 -3 -18 -5 -3 -13 -15 -16 -25 -11 -27 -15 -16 -10 22 5 33 16 41 29 21z
m-1562 -64 c-25 -19 -40 -19 -24 0 7 8 20 15 28 15 13 0 12 -3 -4 -15z m4291
-23 c-3 -3 -11 0 -18 7 -9 10 -8 11 6 5 10 -3 15 -9 12 -12z m243 7 c-2 -6 -8
-10 -13 -10 -5 0 -11 4 -13 10 -2 6 4 11 13 11 9 0 15 -5 13 -11z m-3618 -6
c0 -5 -9 -19 -20 -33 -11 -14 -20 -34 -21 -45 -1 -16 -2 -17 -6 -3 -5 20 25
88 38 88 5 0 9 -3 9 -7z m3635 -23 c3 -5 1 -10 -4 -10 -6 0 -11 5 -11 10 0 6
2 10 4 10 3 0 8 -4 11 -10z m1351 -92 c19 3 23 1 18 -12 -11 -30 -55 -10 -53
24 1 13 2 13 6 -1 3 -11 12 -15 29 -11z m-1083 -5 c-7 -2 -21 -2 -30 0 -10 3
-4 5 12 5 17 0 24 -2 18 -5z m-1213 -33 c0 -5 -2 -10 -4 -10 -3 0 -8 5 -11 10
-3 6 -1 10 4 10 6 0 11 -4 11 -10z m2355 -20 c11 -13 14 -20 6 -20 -13 0 -41
24 -41 34 0 12 18 5 35 -14z m-1285 -30 c0 -5 -4 -10 -9 -10 -6 0 -13 5 -16
10 -3 6 1 10 9 10 9 0 16 -4 16 -10z m-3892 -24 c-7 -8 -15 -12 -17 -11 -5 6
10 25 20 25 5 0 4 -6 -3 -14z m-822 -83 c7 -10 14 -24 14 -32 0 -20 -26 4 -33
29 -6 25 2 26 19 3z m74 -33 c0 -5 -7 -7 -15 -4 -8 4 -12 10 -9 15 6 11 24 2
24 -11z m5454 5 c-4 -8 -8 -15 -10 -15 -2 0 -4 7 -4 15 0 8 4 15 10 15 5 0 7
-7 4 -15z m-468 -52 c-10 -10 -19 5 -10 18 6 11 8 11 12 0 2 -7 1 -15 -2 -18z
m161 21 c-3 -3 -12 -4 -19 -1 -8 3 -5 6 6 6 11 1 17 -2 13 -5z m-5139 -81 c8
-53 9 -89 2 -113 -5 -19 -11 -52 -14 -74 -3 -21 -8 -41 -12 -45 -4 -3 -4 2 -1
12 4 11 1 17 -8 17 -8 0 -15 -5 -15 -10 0 -11 -22 -35 -53 -60 -18 -13 -18
-12 -1 26 24 51 34 65 45 58 14 -8 31 46 22 70 -4 11 -6 24 -5 29 4 15 -16 7
-22 -9 -4 -9 -9 -14 -12 -11 -3 3 1 16 10 29 9 12 16 31 16 41 0 10 4 16 9 13
5 -3 8 16 7 42 -2 26 -1 50 1 55 11 21 21 -1 31 -70z m5433 45 c7 -101 7 -97
-12 -85 -29 18 -26 107 3 107 4 0 9 -10 9 -22z m-846 -63 c109 -57 110 -58 61
-53 -47 6 -145 46 -146 61 0 4 -9 16 -20 27 -11 11 -20 26 -20 33 0 9 2 9 8 1
4 -7 57 -38 117 -69z m-3405 -8 c-19 -51 -69 -150 -90 -177 -19 -25 -20 -25
-20 -3 0 48 53 188 84 221 29 31 31 32 34 12 2 -12 -2 -36 -8 -53z m4027 43
c-7 -26 15 -42 47 -34 16 4 26 2 26 -5 0 -10 -14 -15 -32 -12 -5 0 -17 -8 -28
-19 -11 -11 -24 -20 -29 -20 -11 0 -21 74 -9 78 4 2 8 10 8 18 0 8 5 14 11 14
6 0 9 -9 6 -20z m-5133 -36 c4 -15 4 -29 1 -32 -8 -8 -25 19 -25 41 0 26 17
20 24 -9z m5306 11 c0 -8 -4 -15 -8 -15 -5 0 -9 7 -9 15 0 8 4 15 9 15 4 0 8
-7 8 -15z m-4322 -74 c2 -12 -2 -28 -8 -36 -8 -10 -10 -40 -7 -92 3 -43 3 -70
1 -60 -3 9 -10 17 -16 17 -6 0 -8 9 -5 21 3 11 0 22 -7 25 -9 4 -9 21 3 80 14
72 32 94 39 45z m3647 -41 c4 -6 -6 -10 -24 -10 -16 0 -33 5 -36 10 -4 6 6 10
24 10 16 0 33 -4 36 -10z m48 3 c-7 -2 -19 -2 -25 0 -7 3 -2 5 12 5 14 0 19
-2 13 -5z m-320 -30 c-7 -2 -19 -2 -25 0 -7 3 -2 5 12 5 14 0 19 -2 13 -5z
m-4099 -36 c8 -7 17 -27 21 -45 3 -17 11 -34 16 -37 16 -11 10 -24 -11 -22
-11 1 -19 6 -16 12 2 5 -3 17 -10 26 -15 17 -30 79 -20 79 4 0 13 -6 20 -13z
m103 -48 c-3 -12 -1 -17 6 -12 6 4 8 -2 5 -15 -4 -12 -2 -22 3 -22 14 0 50
-88 55 -135 3 -22 9 -44 14 -49 7 -7 25 59 33 124 2 17 7 7 17 -34 7 -32 20
-60 27 -63 7 -3 13 -13 13 -22 0 -10 3 -21 7 -25 15 -15 2 -101 -19 -121 -17
-16 -20 -17 -15 -3 6 16 -13 40 -29 37 -25 -4 -31 4 -29 34 2 19 -1 40 -5 47
-9 14 -9 13 -25 -65 -3 -13 -10 -37 -16 -52 -10 -26 -12 -27 -19 -8 -12 28
-12 75 0 75 10 0 4 135 -7 153 -4 7 -6 20 -5 30 2 9 -2 17 -7 17 -6 0 -11 8
-11 18 0 10 -4 22 -9 28 -5 5 -11 28 -14 50 -4 38 -3 41 15 36 13 -3 18 -11
15 -23z m-142 -24 c9 -25 30 -55 45 -67 18 -13 32 -36 39 -64 8 -31 15 -42 25
-38 17 7 40 -31 32 -52 -7 -17 -37 -19 -35 -1 3 26 -2 35 -21 40 -18 5 -19 2
-14 -36 4 -23 17 -56 30 -74 13 -17 24 -36 24 -42 0 -19 -18 -12 -25 9 -3 11
-11 20 -16 20 -5 0 -9 6 -9 13 0 8 -9 22 -20 32 -21 19 -57 122 -46 132 3 3
14 -5 25 -18 33 -39 24 -7 -24 84 -45 87 -52 107 -36 107 4 0 16 -20 26 -45z
m353 -33 c19 -63 52 -196 52 -211 0 -33 -28 12 -40 65 -8 31 -21 66 -31 77 -9
12 -15 33 -14 47 1 14 3 33 4 43 2 30 17 19 29 -21z m4272 9 c0 -6 -4 -13 -10
-16 -5 -3 -10 1 -10 9 0 9 5 16 10 16 6 0 10 -4 10 -9z m317 -23 c-3 -8 -6 -5
-6 6 -1 11 2 17 5 13 3 -3 4 -12 1 -19z m-5407 -3 c-7 -9 -15 -13 -19 -10 -3
3 1 10 9 15 21 14 24 12 10 -5z m1170 -4 c0 -13 -69 -65 -76 -58 -4 3 7 20 24
37 30 30 52 39 52 21z m3868 -46 c-3 -31 -18 -21 -18 11 0 14 4 22 10 19 5 -3
9 -17 8 -30z m-893 -13 c-7 -8 -35 7 -35 18 0 6 7 6 20 -2 10 -7 17 -14 15
-16z m837 -12 c-15 -25 -9 -26 14 -3 17 17 17 16 10 -11 -9 -35 -32 -59 -58
-61 -20 -2 -20 -2 10 72 11 28 20 39 27 32 6 -6 5 -16 -3 -29z m-5202 6 c0 -3
-4 -8 -10 -11 -5 -3 -10 -1 -10 4 0 6 5 11 10 11 6 0 10 -2 10 -4z m50 -82
c12 -31 12 -34 1 -34 -5 0 -11 8 -15 18 -3 9 -9 23 -12 30 -3 6 -1 12 5 12 7
0 16 -12 21 -26z m91 -44 c5 0 9 -4 9 -10 0 -16 -26 -12 -41 7 -12 15 -12 16
4 10 10 -4 23 -7 28 -7z m4919 -14 c0 -3 -4 -8 -10 -11 -5 -3 -10 -1 -10 4 0
6 5 11 10 11 6 0 10 -2 10 -4z m-4953 -12 c-3 -3 -12 -4 -19 -1 -8 3 -5 6 6 6
11 1 17 -2 13 -5z m-12 -24 c3 -5 1 -10 -4 -10 -6 0 -11 5 -11 10 0 6 2 10 4
10 3 0 8 -4 11 -10z m4933 -66 c1 -29 -1 -43 -8 -39 -11 7 -14 85 -2 85 4 0 8
-21 10 -46z m-4188 -5 c0 -11 -4 -17 -10 -14 -5 3 -10 13 -10 21 0 8 5 14 10
14 6 0 10 -9 10 -21z m130 -18 c0 -16 -12 -41 -20 -41 -4 0 -5 11 -2 25 4 23
22 36 22 16z m-490 -21 c0 -5 7 -10 15 -10 8 0 15 -7 15 -16 0 -11 -5 -14 -16
-10 -10 4 -23 -1 -31 -11 -14 -17 -14 -17 -9 0 3 10 6 27 6 38 0 10 5 19 10
19 6 0 10 -4 10 -10z m-35 -143 c-1 -34 -4 -68 -9 -75 -4 -6 -2 -12 3 -12 6 0
11 -5 11 -11 0 -7 8 -18 18 -25 16 -13 16 -13 0 -14 -10 0 -18 -4 -18 -10 0
-5 6 -7 14 -4 14 6 33 -32 22 -43 -3 -4 -6 -1 -6 5 0 7 -4 12 -9 12 -5 0 -7
-9 -4 -20 9 -35 -14 -21 -37 22 -25 49 -31 119 -14 171 7 20 11 37 7 37 -3 0
0 7 7 15 7 8 13 15 14 15 1 0 1 -28 1 -63z m174 50 c6 -8 8 -17 4 -20 -12 -13
-32 -7 -43 13 -9 17 -8 20 8 20 11 0 25 -6 31 -13z m14 -44 c-7 -2 -21 -2 -30
0 -10 3 -4 5 12 5 17 0 24 -2 18 -5z m-571 -65 c-7 -7 -12 -8 -12 -2 0 14 12
26 19 19 2 -3 -1 -11 -7 -17z m522 -92 c-6 -24 -34 -38 -34 -16 0 11 32 51 37
46 2 -2 1 -15 -3 -30z m396 -4 c0 -10 -6 -19 -12 -19 -7 0 -22 -4 -33 -8 -18
-7 -17 -5 4 18 29 32 41 34 41 9z m-43 -48 c-3 -3 -12 -4 -19 -1 -8 3 -5 6 6
6 11 1 17 -2 13 -5z m3793 -70 c-12 -19 -25 -33 -27 -30 -3 3 4 18 16 34 12
17 21 36 22 44 0 10 2 10 6 1 2 -7 -5 -29 -17 -49z m-3622 -5 c-3 -20 -5 -19
-9 9 -3 20 -2 29 4 23 5 -5 7 -19 5 -32z m-422 -14 c10 -8 14 -15 8 -15 -5 0
-19 7 -30 15 -10 8 -14 15 -8 15 5 0 19 -7 30 -15z"/>
<path d="M2495 6220 c-3 -5 -8 -24 -10 -42 l-4 -33 19 25 c11 14 20 30 20 37
0 16 -17 26 -25 13z"/>
<path d="M2398 4800 c-12 -39 -10 -76 3 -63 6 6 9 28 7 49 -3 35 -4 36 -10 14z"/>
<path d="M2310 4730 c0 -5 5 -10 10 -10 6 0 10 5 10 10 0 6 -4 10 -10 10 -5 0
-10 -4 -10 -10z"/>
<path d="M2371 4692 c-1 -7 -5 -10 -11 -7 -5 3 -10 -1 -10 -9 0 -8 5 -18 10
-21 12 -7 24 19 17 37 -4 10 -6 10 -6 0z"/>
<path d="M2143 4149 c-1 -10 2 -19 8 -19 11 0 12 27 1 34 -4 2 -9 -4 -9 -15z"/>
<path d="M5786 2995 c-4 -10 1 -15 16 -15 17 0 18 2 8 15 -7 8 -14 15 -15 15
-2 0 -5 -7 -9 -15z"/>
<path d="M1886 2194 c-4 -10 -1 -14 6 -12 15 5 23 28 10 28 -5 0 -13 -7 -16
-16z"/>
<path d="M1765 2140 c-3 -5 -1 -10 4 -10 6 0 11 5 11 10 0 6 -2 10 -4 10 -3 0
-8 -4 -11 -10z"/>
<path d="M1637 1673 c-4 -3 -7 -11 -7 -17 0 -6 5 -5 12 2 6 6 9 14 7 17 -3 3
-9 2 -12 -2z"/>
<path d="M5806 5855 c8 -37 14 -45 14 -19 0 10 -5 26 -10 34 -8 11 -9 7 -4
-15z"/>
<path d="M4635 5575 c0 -13 3 -21 8 -18 4 2 7 10 7 18 0 8 -3 16 -7 18 -5 3
-8 -5 -8 -18z"/>
<path d="M4650 5531 c0 -6 4 -13 10 -16 6 -3 7 1 4 9 -7 18 -14 21 -14 7z"/>
<path d="M2868 5309 c-22 -11 -38 -27 -38 -37 0 -10 3 -13 8 -6 4 6 19 14 33
17 22 6 46 33 37 42 -2 2 -20 -6 -40 -16z"/>
<path d="M6034 5294 c4 -10 10 -31 13 -47 6 -28 20 -44 30 -33 3 3 -2 17 -11
30 -9 14 -16 32 -16 40 0 8 -5 18 -12 22 -8 5 -9 2 -4 -12z"/>
<path d="M2811 5264 c0 -11 3 -14 6 -6 3 7 2 16 -1 19 -3 4 -6 -2 -5 -13z"/>
<path d="M4211 5174 c0 -11 3 -14 6 -6 3 7 2 16 -1 19 -3 4 -6 -2 -5 -13z"/>
<path d="M4200 5110 c0 -5 5 -10 10 -10 6 0 10 5 10 10 0 6 -4 10 -10 10 -5 0
-10 -4 -10 -10z"/>
<path d="M3170 4925 c-9 -10 -22 -14 -36 -11 -13 4 -26 1 -29 -4 -4 -6 -10 -8
-15 -5 -9 5 -95 -18 -148 -41 -18 -8 -39 -14 -47 -14 -8 0 -19 -9 -25 -20 -8
-15 -21 -20 -51 -20 -44 0 -52 -22 -11 -28 12 -2 29 -16 37 -32 16 -30 49 -45
125 -53 36 -5 41 -3 25 5 -11 6 -30 20 -43 31 -14 13 -34 20 -52 19 -20 -2
-30 2 -30 11 0 20 12 28 25 17 8 -7 21 0 42 20 29 29 105 69 131 70 6 0 12 -7
12 -15 0 -17 16 -20 25 -5 10 17 22 3 38 -44 l15 -45 -29 -6 c-32 -7 -37 -26
-14 -45 8 -7 15 -20 15 -30 0 -31 65 -34 185 -10 28 6 65 11 82 13 25 1 30 5
24 16 -8 12 -21 13 -76 5 -36 -6 -68 -7 -71 -2 -3 4 2 22 10 40 8 18 16 44 18
58 4 25 9 27 40 15 15 -6 17 -3 12 23 -6 31 10 53 20 27 7 -18 39 -20 34 -2
-6 16 -69 46 -85 40 -7 -3 -13 1 -13 8 0 11 -2 11 -10 -1 -7 -12 -12 -12 -22
-2 -16 16 -45 16 -51 0 -4 -9 -12 -6 -24 10 -18 22 -20 22 -33 7z m30 -125 c0
-11 -4 -20 -10 -20 -5 0 -10 9 -10 20 0 11 5 20 10 20 6 0 10 -9 10 -20z"/>
<path d="M4042 4893 c-46 -65 -81 -280 -51 -310 7 -7 8 -16 0 -29 -17 -31 -30
-145 -19 -176 6 -16 8 -38 5 -50 -8 -29 13 -129 30 -150 8 -9 12 -21 9 -27 -7
-10 33 -81 46 -81 4 0 10 9 13 20 3 11 10 20 15 20 5 0 7 7 4 15 -9 22 29 19
49 -3 19 -21 23 -72 6 -72 -7 0 -10 -14 -7 -35 2 -19 2 -35 1 -35 -2 0 -21 9
-41 19 -21 11 -47 19 -58 18 -12 -1 -18 3 -16 14 3 23 -20 39 -46 32 -15 -3
-28 -22 -42 -61 -12 -31 -25 -59 -28 -62 -30 -22 -79 -112 -53 -95 5 3 12 1
16 -5 3 -5 15 -10 26 -10 11 0 17 4 14 10 -3 6 1 7 10 4 18 -7 35 -36 35 -60
0 -19 63 -78 68 -64 5 13 32 13 32 1 0 -5 3 -17 7 -27 5 -14 2 -16 -20 -10
-17 4 -27 2 -27 -5 0 -6 -7 -8 -16 -5 -10 4 -14 1 -11 -6 2 -7 11 -12 21 -10
9 2 16 -4 16 -12 0 -8 10 -16 22 -18 12 -2 23 -8 25 -14 3 -8 -17 -11 -59 -11
-151 -1 -253 -16 -263 -41 -5 -14 -7 -14 -15 -2 -7 12 -11 10 -19 -10 -7 -18
-10 -20 -10 -7 -1 20 -41 24 -41 4 0 -7 -8 -13 -17 -14 -73 -5 -179 -20 -206
-29 -17 -5 -19 -3 -14 15 7 27 -30 52 -44 30 -5 -8 -7 -20 -4 -26 2 -7 -2 -13
-10 -13 -8 0 -15 4 -15 9 0 20 -90 24 -153 6 -34 -9 -66 -21 -72 -25 -5 -5
-23 -10 -40 -12 -24 -2 -31 -8 -33 -30 -2 -20 2 -28 20 -33 13 -4 51 -34 84
-67 58 -56 62 -59 69 -38 4 14 2 26 -8 33 -12 9 -14 25 -10 65 l6 52 56 1 c55
0 74 2 196 13 140 12 176 12 171 -1 -7 -18 9 -16 24 2 14 16 36 15 65 -4 15
-9 16 -11 3 -7 -10 3 -18 1 -18 -3 0 -10 175 -27 231 -22 45 3 118 -16 125
-32 3 -8 17 -11 37 -9 41 4 87 -13 87 -33 0 -21 13 -19 28 5 16 26 38 25 53
-2 l11 -21 19 24 c15 20 20 22 31 11 11 -11 9 -17 -11 -33 -13 -11 -29 -18
-34 -16 -6 2 -19 -5 -29 -15 -10 -10 -27 -18 -39 -18 -11 0 -32 -9 -45 -19
-20 -16 -41 -19 -117 -19 -60 0 -101 -5 -119 -15 -15 -8 -25 -17 -22 -20 3 -3
-3 -3 -14 0 -26 6 -64 -30 -55 -54 3 -10 12 -23 20 -29 11 -10 11 -13 -3 -25
-13 -10 -17 -10 -25 2 -5 8 -9 25 -9 39 0 14 -9 31 -19 37 -16 10 -22 8 -37
-8 -14 -15 -15 -24 -6 -43 9 -19 8 -27 -4 -36 -12 -11 -14 -7 -14 23 0 20 -8
52 -17 72 -18 35 -19 35 -68 30 -75 -9 -151 -5 -173 9 -13 8 -32 0 -32 -15 0
-5 13 -9 29 -9 16 0 39 -10 54 -24 14 -13 40 -27 57 -31 16 -4 30 -11 30 -16
0 -5 9 -9 20 -9 11 0 20 -5 20 -11 0 -5 5 -7 10 -4 6 3 10 -3 10 -14 0 -14 -6
-21 -20 -21 -11 0 -20 -7 -20 -16 0 -11 -7 -8 -24 10 -29 32 -34 32 -29 3 3
-14 -2 -31 -11 -40 -15 -14 -15 -16 1 -15 10 1 36 -7 58 -18 55 -26 267 -27
373 -1 13 4 54 -1 92 -9 63 -15 71 -15 85 0 9 9 23 16 30 16 53 0 195 198 195
271 0 12 11 34 25 51 25 29 34 68 16 68 -15 0 -24 40 -12 54 22 26 -60 126
-103 126 -8 0 -27 14 -43 30 -20 22 -34 29 -50 25 -17 -4 -23 -1 -24 12 0 10
-3 13 -5 6 -3 -7 -12 -9 -20 -6 -8 3 -21 -3 -29 -13 -14 -18 -14 -18 -15 1 0
27 20 55 27 38 2 -7 9 -13 14 -13 15 0 -4 34 -33 60 -15 13 -28 31 -28 38 0 8
-6 12 -12 9 -7 -2 -21 11 -30 29 l-18 34 28 1 c15 1 33 1 40 0 6 -1 17 9 23
22 6 13 33 36 61 51 27 15 61 39 74 54 22 24 24 33 19 86 -5 57 -44 146 -64
146 -5 0 -11 9 -14 20 -3 13 1 21 13 25 10 3 20 14 22 23 7 24 -2 82 -12 82
-15 0 -22 60 -10 75 14 16 5 71 -13 82 -7 5 -23 24 -36 43 -14 19 -31 39 -38
43 -10 6 -13 27 -12 71 1 35 -1 68 -5 74 -3 6 -8 43 -10 82 -3 40 -7 74 -9 77
-3 2 -23 7 -45 10 -35 5 -41 2 -60 -24z m68 -938 c0 -10 -11 -15 -35 -15 -33
0 -43 8 -28 23 13 14 63 7 63 -8z"/>
<path d="M3446 4694 c-8 -22 1 -31 16 -16 9 9 9 15 1 23 -7 7 -12 5 -17 -7z"/>
<path d="M4213 4645 c-3 -9 -3 -18 0 -21 9 -9 27 6 27 22 0 19 -19 18 -27 -1z"/>
<path d="M6232 4410 c0 -14 2 -19 5 -12 2 6 2 18 0 25 -3 6 -5 1 -5 -13z"/>
<path d="M6240 4270 c0 -5 5 -10 10 -10 6 0 10 5 10 10 0 6 -4 10 -10 10 -5 0
-10 -4 -10 -10z"/>
<path d="M3495 4010 c-8 -13 15 -13 35 0 12 8 11 10 -7 10 -12 0 -25 -4 -28
-10z"/>
<path d="M6493 3753 c-19 -7 -15 -34 7 -63 11 -14 20 -41 20 -60 0 -20 4 -40
9 -45 5 -6 11 -19 14 -30 4 -18 5 -17 6 3 0 13 6 20 11 17 6 -3 10 1 10 9 0 8
-4 17 -9 20 -5 4 -12 24 -16 46 -4 22 -11 42 -16 46 -5 3 -9 18 -9 35 0 29 -4
32 -27 22z"/>
<path d="M1308 3693 c-8 -62 9 -61 19 1 3 22 2 36 -5 36 -5 0 -12 -17 -14 -37z"/>
<path d="M1279 3638 c0 -2 -2 -30 -4 -63 -3 -49 -2 -55 6 -30 5 17 7 38 5 47
-2 10 0 21 5 24 12 7 11 24 -1 24 -5 0 -10 -1 -11 -2z"/>
<path d="M4610 3558 c0 -13 7 -45 15 -71 8 -28 14 -79 12 -122 -1 -40 1 -76 5
-80 3 -4 16 -4 27 0 16 5 21 15 21 41 0 22 8 42 22 56 13 13 21 31 20 40 -2
10 2 18 7 18 6 0 11 -9 11 -20 0 -11 5 -20 10 -20 11 0 12 15 4 48 -5 18 -11
21 -28 16 -11 -4 -24 -12 -28 -18 -5 -7 -8 -5 -8 5 0 9 -7 20 -16 23 -10 4
-14 14 -11 26 3 13 0 20 -10 20 -8 0 -20 14 -26 30 -13 35 -27 39 -27 8z"/>
<path d="M2988 3544 c-5 -4 -8 -25 -8 -48 0 -28 3 -37 11 -29 6 6 9 27 7 48
-2 20 -6 33 -10 29z"/>
<path d="M6625 3400 c4 -25 11 -49 15 -53 4 -5 4 13 -1 39 -12 61 -24 73 -14
14z"/>
<path d="M4720 3348 c0 -32 2 -35 24 -31 17 4 24 11 24 30 0 15 -5 22 -13 19
-7 -2 -18 1 -24 7 -8 8 -11 2 -11 -25z"/>
<path d="M6570 3328 c0 -7 7 -22 15 -32 12 -16 15 -17 15 -4 0 24 -11 48 -21
48 -5 0 -9 -6 -9 -12z"/>
<path d="M3420 3276 c0 -2 7 -7 16 -10 8 -3 12 -2 9 4 -6 10 -25 14 -25 6z"/>
<path d="M3560 3090 c0 -12 26 -31 33 -23 12 11 7 21 -13 26 -11 3 -20 2 -20
-3z"/>
<path d="M1317 2967 c-11 -29 -9 -43 4 -30 6 6 9 19 7 29 -3 18 -4 18 -11 1z"/>
<path d="M1436 2968 c3 -4 9 -8 15 -8 5 0 9 4 9 8 0 5 -7 9 -15 9 -8 0 -12 -4
-9 -9z"/>
<path d="M1350 2895 c0 -14 4 -25 8 -25 4 0 9 11 10 25 1 14 -3 25 -8 25 -6 0
-10 -11 -10 -25z"/>
<path d="M1307 2863 c-8 -49 -9 -298 -1 -290 8 8 9 12 18 151 3 54 9 102 11
106 3 5 1 12 -5 15 -6 4 -8 15 -5 26 4 10 2 19 -4 19 -5 0 -11 -12 -14 -27z"/>
<path d="M1311 2550 c-2 -8 -4 -37 -6 -65 -3 -47 -3 -48 6 -16 6 18 8 47 6 65
-2 17 -5 24 -6 16z"/>
<path d="M1362 2518 c1 -20 6 -34 10 -32 11 7 10 36 -2 54 -8 11 -10 6 -8 -22z"/>
<path d="M6454 2385 c6 -63 18 -72 15 -12 -2 27 -7 50 -11 53 -5 3 -6 -16 -4
-41z"/>
<path d="M6466 2274 c7 -57 10 -65 49 -126 40 -64 50 -61 15 5 -15 28 -33 76
-40 105 -16 68 -33 79 -24 16z"/>
<path d="M6430 2135 c0 -8 4 -15 10 -15 5 0 7 7 4 15 -4 8 -8 15 -10 15 -2 0
-4 -7 -4 -15z"/>
<path d="M6569 2073 c12 -24 31 -39 31 -25 0 5 -10 17 -21 28 -22 19 -22 19
-10 -3z"/>
<path d="M6610 2021 c0 -13 39 -35 48 -27 3 3 0 6 -6 6 -6 0 -18 7 -26 16 -9
8 -16 11 -16 5z"/>
<path d="M4360 1619 c0 -5 5 -7 10 -4 6 3 10 8 10 11 0 2 -4 4 -10 4 -5 0 -10
-5 -10 -11z"/>
<path d="M715 1370 c-3 -5 -1 -10 4 -10 6 0 11 5 11 10 0 6 -2 10 -4 10 -3 0
-8 -4 -11 -10z"/>
<path d="M4555 1280 c-3 -5 1 -10 9 -10 8 0 18 5 21 10 3 6 -1 10 -9 10 -8 0
-18 -4 -21 -10z"/>
<path d="M7180 1211 c0 -5 9 -11 21 -14 16 -4 18 -3 8 9 -13 16 -29 19 -29 5z"/>
<path d="M2160 731 c0 -6 5 -13 10 -16 6 -3 10 1 10 9 0 9 -4 16 -10 16 -5 0
-10 -4 -10 -9z"/>
<path d="M6000 679 c0 -5 5 -7 10 -4 6 3 10 8 10 11 0 2 -4 4 -10 4 -5 0 -10
-5 -10 -11z"/>
<path d="M5910 493 c0 -18 2 -33 4 -33 9 0 13 39 5 51 -6 10 -9 4 -9 -18z"/>
<path d="M5800 400 c0 -8 3 -25 6 -38 6 -21 7 -21 20 -5 16 22 18 47 3 37 -6
-3 -15 0 -20 7 -7 12 -9 11 -9 -1z"/>
<path d="M5856 351 c-4 -6 -3 -19 3 -28 9 -17 10 -17 17 0 8 21 -10 45 -20 28z"/>
<path d="M1980 270 c0 -5 5 -10 10 -10 6 0 10 5 10 10 0 6 -4 10 -10 10 -5 0
-10 -4 -10 -10z"/>
<path d="M6518 18 c-17 -17 -17 -18 12 -18 31 0 39 11 18 27 -9 7 -19 4 -30
-9z"/>
<path d="M6680 15 c-11 -13 -7 -15 26 -15 36 1 38 2 20 15 -25 19 -31 19 -46
0z"/>
</g>
</svg>
