<svg xmlns="http://www.w3.org/2000/svg" class="icon__skill" width="75" height="75" viewBox="0 0 75 75" fill="none">
<g clip-path="url(#clip0)">
<path d="M73.5855 34.1622L40.8398 1.41829C38.9552 -0.467554 35.8966 -0.467554 34.0096 1.41829L27.2098 8.21809L35.8356 16.844C37.8401 16.1666 40.1388 16.621 41.7366 18.2189C43.3421 19.827 43.7933 22.1452 43.0995 24.1562L51.4125 32.4695C53.4237 31.7766 55.7443 32.2248 57.3507 33.8338C59.5957 36.078 59.5957 39.7152 57.3507 41.9608C55.1051 44.2067 51.4679 44.2067 49.2211 41.9608C47.5324 40.2703 47.1152 37.7904 47.9701 35.71L40.2176 27.9574L40.2167 48.3589C40.7787 48.6368 41.292 49.0038 41.7366 49.4458C43.9816 51.69 43.9816 55.3275 41.7366 57.5748C39.491 59.8196 35.8521 59.8196 33.6097 57.5748C31.3646 55.3275 31.3646 51.6903 33.6097 49.4461C34.1477 48.9078 34.787 48.4816 35.4908 48.1919V27.6003C34.786 27.3126 34.1463 26.8861 33.6097 26.3461C31.9087 24.6475 31.4997 22.1517 32.3713 20.0631L23.8682 11.5591L1.41504 34.0108C-0.47168 35.8984 -0.47168 38.9573 1.41504 40.8434L34.1613 73.5879C36.0466 75.4741 39.1046 75.4741 40.9922 73.5879L73.5853 40.9954C75.4714 39.1087 75.4714 36.0481 73.5853 34.1622" fill="#DE4C36"></path>
</g>
<defs>
<clipPath id="git-clip0">
<rect width="75" height="75" fill="white"></rect>
</clipPath>
</defs>
</svg>
