<svg xmlns="http://www.w3.org/2000/svg" class="icon__tech" width="75" height="86" viewBox="0 0 75 86" fill="none">
<path d="M75 0L68.1674 76.5434L37.4541 85.058L6.82559 76.5552L0 0H75Z" fill="#E44D26"></path>
<path d="M37.5 78.5501L62.3178 71.6698L68.1565 6.25977H37.5V78.5501Z" fill="#F16529"></path>
<path d="M24.2175 25.0384H37.5V15.6492H13.9564L14.181 18.1681L16.4888 44.0422H37.5V34.653H25.0757L24.2175 25.0384V25.0384Z" fill="#EBEBEB"></path>
<path d="M26.3336 48.7371H16.9083L18.2236 63.4795L37.4568 68.8184L37.5 68.8066V59.0379L37.4588 59.0488L27.0021 56.2253L26.3336 48.7371V48.7371Z" fill="#EBEBEB"></path>
<path d="M37.4676 44.042H49.0294L47.9393 56.2191L37.4673 59.0455V68.8137L56.7158 63.4792L56.8569 61.8928L59.0636 37.1741L59.2926 34.6528H37.4676V44.042Z" fill="white"></path>
<path d="M37.4676 25.0154V25.0383H60.1469L60.3351 22.9281L60.7631 18.1681L60.9875 15.6492H37.4676V25.0157V25.0154Z" fill="white"></path>
</svg>
