<svg xmlns="http://www.w3.org/2000/svg" class="icon__tech" width="75" height="75" viewBox="0 0 75 75" fill="none">
<path d="M0 0H75V75H0V0Z" fill="#F7DF1E"></path>
<path d="M19.7204 62.6786L25.4596 59.2052C26.5671 61.1683 27.5743 62.8295 29.9904 62.8295C32.3063 62.8295 33.7668 61.9236 33.7668 58.3998V34.4355H40.8147V58.4994C40.8147 65.7993 36.5356 69.1222 30.2925 69.1222C24.6543 69.1222 21.3815 66.2021 19.7201 62.678" fill="black"></path>
<path d="M44.6429 61.9222L50.3815 58.5996C51.8924 61.0667 53.8559 62.879 57.3293 62.879C60.2499 62.879 62.112 61.4188 62.112 59.405C62.112 56.9886 60.1989 56.1325 56.9769 54.7233L55.2152 53.9675C50.1302 51.8033 46.7572 49.0846 46.7572 43.3453C46.7572 38.059 50.7847 34.0312 57.0779 34.0312C61.5586 34.0312 64.7807 35.5922 67.0963 39.67L61.6084 43.1944C60.3999 41.0297 59.0915 40.1739 57.0776 40.1739C55.0134 40.1739 53.7044 41.4829 53.7044 43.1944C53.7044 45.3088 55.0134 46.1651 58.0339 47.4741L59.7958 48.2291C65.787 50.797 69.16 53.4146 69.16 59.3045C69.16 65.6484 64.176 69.1219 57.4802 69.1219C50.9355 69.1219 46.7065 66.0006 44.6426 61.9225" fill="black"></path>
</svg>
