<svg xmlns="http://www.w3.org/2000/svg" class="icon__tech" width="75" height="75" viewBox="0 0 75 75" fill="none">
<path d="M4.79378 18.3559C-1.8406 27.8872 -1.01872 40.284 4.05315 50.4059C4.16878 50.6528 4.2969 50.8872 4.4219 51.1215C4.49378 51.284 4.57503 51.434 4.66253 51.5872C4.70315 51.6747 4.7594 51.7653 4.8094 51.8465C4.89065 52.009 4.97815 52.1653 5.06253 52.3215L5.55315 53.1497C5.64378 53.3028 5.73128 53.4528 5.8344 53.6059C6.00628 53.8997 6.2094 54.1903 6.38753 54.484C6.46878 54.6059 6.54378 54.7278 6.6344 54.8497C6.93748 55.3257 7.26069 55.7886 7.60315 56.2372C7.8469 56.5715 8.09065 56.8965 8.35316 57.2215C8.43753 57.3403 8.53128 57.459 8.61878 57.5778L9.30941 58.4184C9.39378 58.5153 9.47816 58.6278 9.56878 58.7278C9.87503 59.0965 10.2 59.4559 10.525 59.8184C10.525 59.8247 10.5344 59.8309 10.5407 59.8403C10.9364 60.3407 11.3802 60.8013 11.8657 61.2153C12.1157 61.4715 12.3657 61.7278 12.6313 61.9778L12.9469 62.2809C13.2938 62.6059 13.6407 62.9309 14.0063 63.2434C14.0125 63.2434 14.0157 63.2497 14.0219 63.2528L14.2 63.409C14.5188 63.6872 14.8407 63.9653 15.1688 64.2215L15.5594 64.5497C15.825 64.7622 16.1 64.9653 16.3719 65.1747L16.7969 65.4997C17.0875 65.7184 17.3969 65.934 17.6938 66.1465C17.8032 66.2247 17.9125 66.3028 18.025 66.3747L18.1157 66.4465L18.9938 67.0247L19.3688 67.2747C19.8282 67.5684 20.2844 67.8465 20.7375 68.1215C20.8688 68.1872 21 68.259 21.1219 68.334C21.4594 68.5278 21.8094 68.7247 22.15 68.9059C22.3375 69.0122 22.5313 69.1028 22.725 69.1997C22.9594 69.3309 23.2032 69.459 23.4532 69.5903C23.5136 69.6087 23.5722 69.6328 23.6282 69.6622C23.7313 69.709 23.8282 69.759 23.9282 69.809C24.3032 69.9965 24.6938 70.1747 25.1 70.3528C25.175 70.384 25.2563 70.4153 25.3375 70.459C25.7875 70.6559 26.2375 70.8434 26.7032 71.0278C26.8094 71.059 26.9219 71.1122 27.0313 71.1528C27.4532 71.3122 27.8875 71.4747 28.3157 71.6278L28.4719 71.684C28.95 71.8465 29.4219 72.0028 29.9063 72.1528C30.0188 72.184 30.1344 72.2247 30.2532 72.2559C30.75 72.4059 31.2313 72.584 31.7313 72.6809C63.7938 78.5247 73.1125 53.4028 73.1125 53.4028C65.2844 63.5965 51.3938 66.284 38.2375 63.2934C37.75 63.1809 37.2625 63.0247 36.7719 62.8809C36.1772 62.7054 35.5864 62.5168 35 62.3153L34.8063 62.2403C34.3813 62.0965 33.9719 61.9372 33.5563 61.7778C33.4433 61.7309 33.3286 61.6882 33.2125 61.6497C32.7532 61.4653 32.3063 61.2747 31.8625 61.0778C31.7657 61.0465 31.6844 61.0028 31.5875 60.9653C31.21 60.7914 30.8339 60.6143 30.4594 60.434C30.3469 60.3843 30.2364 60.3301 30.1282 60.2715C29.8344 60.134 29.5407 59.9778 29.2532 59.8278C29.0557 59.733 28.8609 59.633 28.6688 59.5278C28.3157 59.3403 27.9625 59.1372 27.6094 58.9434C27.5032 58.8684 27.3813 58.8059 27.2594 58.7372C26.7987 58.4643 26.3423 58.1841 25.8907 57.8965C25.765 57.8184 25.642 57.7361 25.5219 57.6497C25.1903 57.4453 24.8651 57.2306 24.5469 57.0059C24.4375 56.934 24.3375 56.8559 24.225 56.7778C23.9146 56.5628 23.6083 56.3419 23.3063 56.1153C23.175 56.009 23.0344 55.909 22.8938 55.8028C22.6188 55.5872 22.3407 55.3809 22.0657 55.1528L21.6969 54.859C21.343 54.5735 20.995 54.2808 20.6532 53.9809C20.6176 53.9462 20.5789 53.9148 20.5375 53.8872L19.4532 52.8997L19.1407 52.6059C18.8844 52.3465 18.6219 52.0965 18.3594 51.8403L18.0563 51.5278C17.7262 51.1993 17.4042 50.8628 17.0907 50.5184L17.0438 50.4684C16.7129 50.104 16.3868 49.7352 16.0657 49.3622C15.9813 49.2653 15.9032 49.1622 15.8157 49.059L15.1094 48.1934C14.7491 47.7315 14.3949 47.2647 14.0469 46.7934C6.75003 36.8309 4.1094 23.0809 9.95003 11.8028L4.79378 18.3559ZM25.3782 10.3278C20.5688 17.2309 20.8407 26.4622 24.5844 33.7622C25.2031 34.991 25.9102 36.1732 26.7 37.2997C27.4188 38.3309 28.2125 39.5497 29.175 40.3809C29.5094 40.7622 29.8719 41.1309 30.25 41.5028L30.5313 41.784C30.8875 42.1278 31.2532 42.4653 31.625 42.7997L31.6719 42.8403C32.0934 43.2082 32.5248 43.5646 32.9657 43.909C33.0719 43.9809 33.1625 44.0653 33.2657 44.1372C33.7032 44.4747 34.1438 44.7997 34.6 45.1215L34.6469 45.1497C34.8407 45.2903 35.0469 45.4184 35.2657 45.5559C35.3532 45.6122 35.4532 45.6872 35.5469 45.7434C35.8782 45.9559 36.2032 46.1559 36.5375 46.359C36.5907 46.3809 36.6375 46.409 36.6875 46.4309C36.9688 46.6028 37.275 46.7684 37.5688 46.9215C37.6719 46.984 37.7719 47.0309 37.8782 47.0903C38.0875 47.1934 38.2938 47.3028 38.4938 47.409L38.5938 47.4528C39.0157 47.659 39.4469 47.8528 39.8688 48.0465C39.975 48.0872 40.0657 48.1215 40.1563 48.1653C40.5032 48.3153 40.8563 48.459 41.2032 48.5934C41.3594 48.6465 41.5063 48.709 41.6532 48.7559C41.9719 48.8747 42.3063 48.984 42.6219 49.0934L43.0594 49.234C43.5157 49.3747 43.9782 49.559 44.4594 49.6372C69.2094 53.7403 74.9407 34.6778 74.9407 34.6778C69.7813 42.1028 59.7969 45.6403 49.1563 42.8778C48.6858 42.756 48.2189 42.6205 47.7563 42.4715C47.6063 42.4309 47.475 42.384 47.3313 42.3403C47.0063 42.2278 46.6719 42.1184 46.3563 41.9997L45.9063 41.8309C45.5563 41.6903 45.2 41.559 44.8594 41.409C44.7532 41.3622 44.6563 41.3309 44.575 41.284C44.1375 41.0872 43.6969 40.8934 43.2719 40.684L42.6282 40.3497L42.2563 40.1622C41.9761 40.0134 41.7 39.857 41.4282 39.6934C41.3616 39.6617 41.2969 39.6262 41.2344 39.5872C40.9032 39.3809 40.5594 39.1809 40.2438 38.9684C40.1375 38.909 40.0407 38.8372 39.9407 38.7747L39.2907 38.3497C38.8407 38.0372 38.4 37.6997 37.9563 37.3747C37.8563 37.284 37.7594 37.209 37.6625 37.1278C32.9844 33.4497 29.2938 28.4215 27.5438 22.7278C25.7 16.809 26.1063 10.1715 29.2907 4.78403L25.3782 10.3278ZM42.6875 4.32466C39.85 8.48716 39.5782 13.6559 41.5313 18.2465C43.6063 23.1215 47.85 26.9497 52.7938 28.7622C52.9969 28.8403 53.1938 28.9059 53.4032 28.9809L53.6782 29.0653C53.9657 29.1559 54.2563 29.2622 54.5532 29.3278C68.2282 31.9653 71.9282 22.3059 72.925 20.8872C69.6688 25.5622 64.2094 26.684 57.5125 25.0559C56.9662 24.9194 56.4278 24.7524 55.9 24.5559C55.2439 24.3253 54.6003 24.0604 53.9719 23.7622C52.7827 23.1857 51.6524 22.495 50.5969 21.6997C44.5969 17.1559 40.8813 8.48091 44.7938 1.41528" fill="#007ACC"></path>
</svg>
