<svg xmlns="http://www.w3.org/2000/svg" class="icon__skill" width="75" height="85" viewBox="0 0 75 85" fill="none">
<g clip-path="url(#clip0)">
<path d="M37.5 84.5113C36.3354 84.5113 35.2485 84.2007 34.2393 83.6573L23.913 77.5237C22.3603 76.6697 23.1366 76.3591 23.6024 76.2039C25.6986 75.5051 26.0868 75.3499 28.2606 74.1074C28.4938 73.9521 28.8044 74.0297 29.037 74.185L36.9565 78.9211C37.2671 79.0764 37.6553 79.0764 37.8882 78.9211L68.8667 60.9865C69.1772 60.8312 69.3325 60.5207 69.3325 60.1325V24.3402C69.3325 23.952 69.1772 23.6415 68.8667 23.4862L37.8882 5.62886C37.5776 5.47358 37.1895 5.47358 36.9565 5.62886L5.97803 23.4865C5.66748 23.6417 5.51221 24.0299 5.51221 24.3405V60.1325C5.51221 60.443 5.66748 60.8312 5.97803 60.9865L14.441 65.8776C19.0219 68.2067 21.8941 65.4894 21.8941 62.7721V27.4457C21.8941 26.9798 22.2826 26.514 22.8261 26.514H26.7858C27.2517 26.514 27.7175 26.9022 27.7175 27.4457V62.7718C27.7175 68.9054 24.3788 72.4767 18.5558 72.4767C16.7701 72.4767 15.3727 72.4767 11.4132 70.5358L3.26074 65.8776C1.24219 64.7127 0 62.5389 0 60.2098V24.4181C0 22.089 1.24219 19.9152 3.26074 18.7503L34.2393 0.815674C36.1802 -0.27124 38.8198 -0.27124 40.7607 0.815674L71.7393 18.7503C73.7578 19.9149 75 22.0887 75 24.4181V60.2101C75 62.5392 73.7578 64.713 71.7393 65.8776L40.7607 83.8128C39.7515 84.2787 38.5869 84.5116 37.5 84.5116V84.5113ZM47.0496 59.8993C33.4626 59.8993 30.6677 53.6883 30.6677 48.4087C30.6677 47.9429 31.0559 47.4771 31.5993 47.4771H35.6364C36.1022 47.4771 36.4907 47.7876 36.4907 48.2535C37.1118 52.3682 38.8975 54.3871 47.1272 54.3871C53.649 54.3871 56.4442 52.912 56.4442 49.4183C56.4442 47.3995 55.6679 45.9244 45.4969 44.9148C37.0342 44.0608 31.7546 42.1975 31.7546 35.4431C31.7546 29.154 37.0339 25.4274 45.8851 25.4274C55.8229 25.4274 60.7143 28.8434 61.3354 36.2968C61.3354 36.5297 61.2577 36.7626 61.1024 36.9956C60.9472 37.1508 60.7143 37.3061 60.4813 37.3061H56.4442C56.0558 37.3061 55.6679 36.9956 55.5899 36.6074C54.6583 32.3374 52.2516 30.9399 45.8851 30.9399C38.7425 30.9399 37.8882 33.4243 37.8882 35.2875C37.8882 37.5393 38.8975 38.2377 48.5247 39.4799C58.0746 40.7221 62.5775 42.5081 62.5775 49.1851C62.4999 56.0174 56.9101 59.8993 47.0496 59.8993Z" fill="#539E43"></path>
</g>
<defs>
<clipPath id="nodejs-clip0">
<rect width="75" height="84.668" fill="white"></rect>
</clipPath>
</defs>
</svg>
