<svg xmlns="http://www.w3.org/2000/svg" class="icon__skill" width="75" height="75" viewBox="0 0 75 75" fill="none">
<path d="M0 37.5V75H75V0H0V37.5Z" fill="#007ACC"></path>
<path d="M16.5856 37.7509L16.5619 40.8221H26.3236V68.5604H33.2289V40.8221H42.9906V37.8104C42.9906 36.1434 42.9549 34.7506 42.9074 34.7149C42.8717 34.6674 36.9311 34.6434 29.7288 34.6554L16.6217 34.6912L16.5859 37.7506L16.5856 37.7509Z" fill="white"></path>
<path d="M60.5177 34.6036C62.4223 35.0799 63.8748 35.9249 65.2081 37.3059C65.8986 38.0442 66.9223 39.3895 67.0057 39.7109C67.0292 39.8061 63.7676 41.9966 61.7915 43.2227C61.72 43.2705 61.4341 42.9608 61.1127 42.4844C60.1485 41.0799 59.1366 40.4726 57.5889 40.3657C55.3154 40.2107 53.8509 41.4013 53.8629 43.3891C53.8629 43.9727 53.9461 44.3178 54.1843 44.7942C54.6844 45.8298 55.6128 46.4489 58.5296 47.7107C63.8985 50.0205 66.196 51.5442 67.6248 53.7107C69.22 56.1277 69.5771 59.9846 68.4937 62.8537C67.3034 65.9726 64.3512 68.0919 60.196 68.7942C58.9104 69.0204 55.863 68.9846 54.4819 68.7347C51.4702 68.1989 48.6129 66.7109 46.851 64.7586C46.1604 63.9965 44.8151 62.0085 44.8986 61.8655C44.9344 61.818 45.2437 61.6276 45.5888 61.4251C45.9222 61.2347 47.1844 60.5082 48.3747 59.8179L50.5295 58.5678L50.9818 59.2346C51.6129 60.1988 52.9936 61.5204 53.8271 61.9607C56.2198 63.2228 59.5057 63.0441 61.1247 61.5916C61.8152 60.9608 62.1009 60.306 62.1009 59.3416C62.1009 58.4726 61.9936 58.0918 61.5413 57.4373C60.9583 56.6038 59.7677 55.9012 56.3865 54.4373C52.5176 52.7703 50.8509 51.7346 49.3271 50.0917C48.4462 49.1395 47.6127 47.6155 47.2676 46.3417C46.9819 45.2823 46.9101 42.6274 47.1366 41.556C47.9344 37.8177 50.7556 35.2109 54.827 34.4369C56.1483 34.187 59.2198 34.2822 60.5177 34.6039V34.6036Z" fill="white"></path>
</svg>
